<?xml version="1.0" encoding="utf-8"?>
<svg version="1.1" id="Layer_1" xmlns="http://www.w3.org/2000/svg" xmlns:xlink="http://www.w3.org/1999/xlink" x="0px" y="0px"
	 viewBox="0 0 3941.276 5000" enable-background="new 0 0 3941.276 5000" xml:space="preserve">
<g>
	<g>
		<g>
			<path fill="#EED6B3" d="M3042.913,3049.437c0,0,95.015,170.499,116.843,341.961c32.798,257.628-41.124,315.026,52.272,528.213
				c93.396,213.188,562.61,765.573,562.61,765.573c-897.847,631.362-1984.201,17.482-1984.201,17.482
				s450.974-614.964,553.468-778.955c101.452-162.323,0-315.681,39.703-557.566c39.702-241.886,163.033-316.707,163.033-316.707
				L3042.913,3049.437L3042.913,3049.437z"/>
			<polygon fill="#FBDBE4" points="2546.64,2969.492 2546.64,3049.437 3042.913,3049.437 3036.764,2969.492 			"/>
			<path fill="#60331A" d="M1991.98,939.179c0,0,402.8-832.342,1348.421-234.035L1991.98,939.179z"/>
			<path fill="#4F2A14" d="M1942.153,1217.194c0,0,39.851,179.689,7.614,217.276c-32.237,37.586-155.23,151.34-142.931,275.877
				s9.777,299.793,175.814,376.152c166.037,76.36,62.282,154.722,179.995,277.484c117.713,122.763,528.842,321.489,1085.832,172.929
				s120.999-1285.7,120.999-1285.7L1942.153,1217.194z"/>
			<polygon fill="#F3AE97" points="2698.522,2204.648 2887.658,2208.479 2887.658,2337.694 2698.522,2337.694 			"/>
			<path fill="#F3AE97" d="M2984.492,3406.669c-73.454-51.416,95.392-515.917,81.056-632.7c-2.222-17.859-3.387-28.286-3.387-28.286
				l-525.369-4.262c0,0-0.167,4.192-0.528,11.853c-3.322,75.766-198.036,660.389-305.103,637.469
				c-114.904-24.599,113.955-115.948,152.984-652.626c12.75-175.341,44.927-328.284,44.927-328.284l267.486-78.6l190.819-0.241
				l285.106,75.658c0,0,32.729,165.657,45.539,350.038C3234.062,2987.825,3050.088,3424.879,2984.492,3406.669L2984.492,3406.669z"
				/>
			<g opacity="0.46">
				<g>
					<g>
						<g>
							<defs>
								<rect id="SVGID_1_" x="2698.522" y="2211.675" width="189.136" height="53.364"/>
							</defs>
							<clipPath id="SVGID_2_">
								<use xlink:href="#SVGID_1_"  overflow="visible"/>
							</clipPath>
						</g>
					</g>
				</g>
				<g>
					<g>
						<g>
							<rect id="SVGID_5_" x="2698.522" y="2211.675" fill="#EE8066" width="189.136" height="53.364"/>
						</g>
						<g>
							<defs>
								<rect id="SVGID_3_" x="2698.522" y="2211.675" width="189.136" height="53.364"/>
							</defs>
							<clipPath id="SVGID_4_">
								<use xlink:href="#SVGID_3_"  overflow="visible"/>
							</clipPath>
							<g clip-path="url(#SVGID_4_)">
								<g>
									<rect id="SVGID_7_" x="2698.522" y="2211.675" fill="#EE8066" width="189.136" height="53.364"/>
								</g>
								<g>
									<defs>
										<rect id="SVGID_6_" x="2698.522" y="2211.675" width="189.136" height="53.364"/>
									</defs>
									<clipPath id="SVGID_8_">
										<use xlink:href="#SVGID_6_"  overflow="visible"/>
									</clipPath>
									<path clip-path="url(#SVGID_8_)" fill="#EE8066" d="M2698.522,2211.675c0,0,104.963,2.641,189.136,3.831v49.533
										c0,0-187.126-39.552-189.136-40.322V2211.675z"/>
								</g>
							</g>
						</g>
					</g>
				</g>
				<g>
					<g>
						<g>
							<defs>
								<rect id="SVGID_9_" x="2698.522" y="2211.675" width="189.136" height="53.364"/>
							</defs>
							<clipPath id="SVGID_10_">
								<use xlink:href="#SVGID_9_"  overflow="visible"/>
							</clipPath>
						</g>
					</g>
				</g>
			</g>
			<path fill="#EA6D54" d="M2841.392,2418.575c0,0,1.188-1.861,3.64-4.744c2.48-2.858,6.269-6.834,11.596-10.739
				c2.619-1.993,5.711-3.843,9.099-5.633c3.435-1.596,7.193-3.086,11.326-4c2.018-0.492,4.131-0.937,6.282-1.129
				c2.18-0.324,4.372-0.372,6.595-0.349c4.335-0.023,8.563,0.144,12.916,0.193c8.601,0.192,17.23,0.144,25.271,0.456
				c8.073,0.409,15.573,1.297,21.957,1.922c12.816,1.333,21.38,3.195,21.38,3.195c0.197,0.084,0.323,0.253,0.281,0.445
				c-0.017,0.168-0.15,0.287-0.301,0.324c0,0-8.654,1.369-21.661,1.922c-6.509,0.336-14.035,0.216-22.076-0.144
				c-8.066-0.529-16.624-1.501-25.217-2.21c-4.252-0.373-8.636-0.805-12.75-1.033c-2.024-0.144-4.011-0.264-5.975-0.048
				c-1.994,0-3.933,0.276-5.856,0.613c-3.832,0.577-7.404,1.802-10.762,3.026c-3.321,1.394-6.419,2.908-9.074,4.577
				c-5.417,3.327-9.477,6.858-12.102,9.453c-2.683,2.641-3.969,4.347-3.969,4.347c-0.121,0.144-0.372,0.168-0.51,0.072
				C2841.302,2418.96,2841.284,2418.744,2841.392,2418.575L2841.392,2418.575z"/>
			<g opacity="0.46">
				<g>
					<g>
						<defs>
							<rect id="SVGID_11_" x="2846.004" y="2396.043" width="92.353" height="17.645"/>
						</defs>
						<clipPath id="SVGID_12_">
							<use xlink:href="#SVGID_11_"  overflow="visible"/>
						</clipPath>
						<g clip-path="url(#SVGID_12_)">
							<g>
								<defs>
									<rect id="SVGID_13_" x="2846.004" y="2396.043" width="92.316" height="17.645"/>
								</defs>
								<clipPath id="SVGID_14_">
									<use xlink:href="#SVGID_13_"  overflow="visible"/>
								</clipPath>
								<path clip-path="url(#SVGID_14_)" fill="#DCA15F" d="M2846.094,2413.062c0,0,3.771-4.864,11.554-9.824
									c1.952-1.225,4.174-2.462,6.625-3.543c2.462-0.985,5.158-1.983,8.089-2.487c2.877-0.673,6.006-0.888,9.154-0.888h8.875
									c2.968,0,5.963-0.012,8.917-0.06c2.949-0.169,5.827-0.217,8.558-0.217c5.573,0.121,10.739,0.6,15.23,1.009
									c8.943,0.937,14.953,2.413,14.953,2.413c0.193,0.06,0.331,0.265,0.29,0.469c-0.054,0.156-0.144,0.251-0.29,0.288
									c0,0-5.944,1.692-14.941,2.666c-4.475,0.516-9.764,0.853-15.435,0.792c-2.823-0.048-5.753-0.168-8.714-0.396
									c-2.919-0.324-5.904-0.613-8.894-0.902c-3.004-0.287-5.994-0.575-8.966-0.852c-2.703-0.253-5.423-0.372-8.066-0.012
									c-2.642,0.229-5.152,0.889-7.537,1.573c-2.366,0.685-4.57,1.563-6.534,2.511c-3.958,1.874-7.027,3.927-9.134,5.429
									c-2.127,1.525-3.202,2.545-3.202,2.545c-0.144,0.108-0.384,0.108-0.51-0.025
									C2845.992,2413.411,2845.992,2413.183,2846.094,2413.062"/>
							</g>
						</g>
					</g>
				</g>
			</g>
			<path fill="#EA6D54" d="M2754.096,2419.02c0,0-1.285-1.706-3.933-4.372c-2.661-2.571-6.691-6.102-12.114-9.429
				c-2.678-1.669-5.753-3.183-9.055-4.577c-3.369-1.224-6.966-2.449-10.787-3.026c-1.915-0.336-3.873-0.613-5.843-0.613
				c-1.988-0.216-3.957-0.096-5.994,0.048c-4.125,0.228-8.497,0.66-12.761,1.021c-8.569,0.721-17.116,1.694-25.163,2.222
				c-8.083,0.36-15.601,0.481-22.117,0.144c-12.991-0.552-21.639-1.922-21.639-1.922c-0.197-0.037-0.36-0.229-0.306-0.433
				c0-0.156,0.144-0.276,0.283-0.336c0,0,8.575-1.861,21.379-3.195c6.377-0.625,13.889-1.512,21.95-1.922
				c8.072-0.312,16.665-0.264,25.284-0.456c4.335-0.049,8.563-0.217,12.912-0.193c2.227-0.023,4.407,0.025,6.557,0.349
				c2.186,0.192,4.276,0.637,6.33,1.129c4.084,0.913,7.873,2.403,11.308,4.048c3.404,1.73,6.45,3.592,9.117,5.585
				c5.279,3.904,9.104,7.88,11.566,10.739c2.457,2.883,3.652,4.744,3.652,4.744c0.09,0.156,0.042,0.385-0.108,0.516
				C2754.45,2419.188,2754.24,2419.152,2754.096,2419.02L2754.096,2419.02z"/>
			<g opacity="0.46">
				<g>
					<g>
						<defs>
							<rect id="SVGID_15_" x="2658.801" y="2396.043" width="92.737" height="19.17"/>
						</defs>
						<clipPath id="SVGID_16_">
							<use xlink:href="#SVGID_15_"  overflow="visible"/>
						</clipPath>
						<g clip-path="url(#SVGID_16_)">
							<g>
								<defs>
									<rect id="SVGID_17_" x="2658.801" y="2396.043" width="92.737" height="19.17"/>
								</defs>
								<clipPath id="SVGID_18_">
									<use xlink:href="#SVGID_17_"  overflow="visible"/>
								</clipPath>
								<path clip-path="url(#SVGID_18_)" fill="#DCA15F" d="M2750.895,2415.092c0,0-1.051-1.032-3.086-2.678
									c-2.103-1.61-5.106-3.843-9.027-5.922c-1.958-1.056-4.144-2.017-6.487-2.883c-2.39-0.792-4.9-1.573-7.542-1.908
									c-2.637-0.456-5.412-0.456-8.132-0.205c-2.936,0.253-5.994,0.54-8.978,0.805c-3.039,0.312-6.047,0.625-9.003,0.937
									c-2.995,0.253-5.945,0.361-8.822,0.444c-5.729,0.096-11.085-0.251-15.62-0.792c-9.074-0.913-15.091-2.666-15.091-2.666
									c-0.235-0.06-0.35-0.264-0.295-0.457c0.06-0.144,0.145-0.263,0.295-0.263c0,0,6.064-1.514,15.091-2.451
									c4.583-0.433,9.789-0.913,15.405-1.009c5.596,0.048,11.656,0.385,17.71,0.313h9.026c3.213,0,6.361,0.324,9.26,1.081
									c5.875,1.404,10.762,4.119,14.583,6.774c3.8,2.667,6.647,5.296,8.473,7.231c1.856,1.946,2.787,3.159,2.787,3.159
									c0.132,0.191,0.096,0.372-0.024,0.529C2751.255,2415.261,2751.027,2415.238,2750.895,2415.092"/>
							</g>
						</g>
					</g>
				</g>
			</g>
			<path fill="#F3AE97" d="M3390.002,1655.521c0,0,33.279,212.654-97.159,376.332c-111.294,139.655-365.535,187.922-500.86,184.675
				c-107.697-2.579-198.909-17.156-276.103-40.38c-105.643-31.685-185.234-79.311-245.073-134.209
				c-204.917-187.785-179.125-459.275-179.125-459.275s-139.899-719.734,549.685-738.329
				C3604.966,818.446,3390.002,1655.521,3390.002,1655.521z"/>
			<path fill="#F3AE97" d="M2091.922,1609.77c0,0-65.075-12.122-61.955,67.004c3.116,79.116,36.187,130.315,86.29,134.817
				L2091.922,1609.77z"/>
			<path fill="#F3AE97" d="M3392.301,1599.724c0,0,63.583-24.846,66.704,54.262c3.111,79.126-25.813,132.76-75.437,141.193
				L3392.301,1599.724z"/>
			<g>
				<path fill="#4F2A14" d="M3228.917,1333.245l-4.943-2.395l-5.001-2.395c-3.346-1.572-6.666-3.148-10.027-4.647
					c-6.673-3.055-13.371-5.963-20.044-8.773c-6.713-2.757-13.335-5.51-20.038-8.006c-6.663-2.55-13.308-4.984-19.981-7.196
					c-6.625-2.288-13.26-4.389-19.885-6.289c-6.608-1.93-13.165-3.738-19.683-5.349c-13.006-3.282-25.778-6.032-38.268-7.788
					c-3.121-0.461-6.262-0.686-9.399-0.824c-3.144-0.037-6.273-0.043-9.382,0.198c-6.214,0.425-12.3,1.296-18.063,2.141
					c-5.77,0.813-11.214,1.294-16.48,1.064c-5.26-0.16-10.369-1.077-15.616-2.443c-5.244-1.365-10.578-2.876-16.25-4.663
					l-2.134-0.639l-2.183-0.728c-1.444-0.398-2.933-0.904-4.442-1.379l-9.408-3.022c-6.545-2.147-13.58-4.287-21.49-6.774
					l-12.514-3.828c-2.203-0.668-4.511-1.429-6.834-2.1c-2.374-0.765-4.784-1.494-7.411-2.476l-5.613-9.507
					c0.541-2.765,1.3-5.276,2.095-7.823c0.414-1.245,0.849-2.477,1.304-3.701c0.455-1.225,0.983-2.339,1.489-3.522
					c1.01-2.369,2.142-4.601,3.323-6.835c1.204-2.194,2.521-4.249,3.837-6.402c1.323-2.137,2.797-4.051,4.284-6.017
					c1.5-1.939,3.031-3.901,4.684-5.656c1.627-1.821,3.323-3.554,5.045-5.311c1.767-1.626,3.556-3.293,5.41-4.85
					c14.813-12.564,32.827-20.876,51.386-25.038c9.281-2.025,18.728-2.84,27.989-2.18c9.249,0.688,18.266,2.83,26.859,5.912
					c8.612,3.071,16.75,7.052,24.642,10.991l23.054,11.706c15.087,7.501,29.182,16.051,42.31,25.525
					c3.275,2.385,6.491,4.813,9.664,7.276c3.138,2.516,6.268,5.004,9.301,7.603c6.071,5.193,11.95,10.507,17.655,15.929
					c5.657,5.498,11.158,11.069,16.453,16.796c5.256,5.78,10.403,11.575,15.27,17.615c4.912,5.979,9.582,12.149,14.076,18.408
					c2.22,3.162,4.418,6.323,6.526,9.559c1.053,1.62,2.096,3.244,3.12,4.885l3.027,5.05L3228.917,1333.245z"/>
			</g>
			<g>
				<path fill="#4F2A14" d="M2295.388,1316.452l3.19-4.949c1.077-1.607,2.173-3.197,3.278-4.781
					c2.213-3.165,4.512-6.253,6.834-9.341c4.696-6.109,9.564-12.123,14.669-17.94c5.061-5.879,10.395-11.503,15.836-17.109
					c5.479-5.551,11.158-10.94,16.991-16.25c5.878-5.233,11.928-10.353,18.165-15.346c3.116-2.499,6.325-4.883,9.544-7.296
					c3.251-2.359,6.545-4.681,9.896-6.958c13.43-9.041,27.797-17.127,43.12-24.133l23.424-10.948
					c8.017-3.68,16.281-7.393,24.988-10.182c8.689-2.8,17.771-4.647,27.038-5.033c9.277-0.358,18.693,0.765,27.904,3.091
					c18.414,4.765,36.148,13.66,50.544,26.7c1.802,1.617,3.536,3.341,5.249,5.024c1.664,1.813,3.302,3.6,4.869,5.473
					c1.594,1.808,3.061,3.819,4.497,5.806c1.422,2.014,2.833,3.975,4.085,6.154c1.246,2.195,2.495,4.292,3.626,6.524
					c1.108,2.272,2.166,4.539,3.099,6.94c0.466,1.199,0.958,2.33,1.373,3.569c0.415,1.237,0.809,2.484,1.182,3.741
					c0.712,2.572,1.388,5.106,1.839,7.887l-5.92,9.319c-2.658,0.896-5.091,1.546-7.488,2.233c-2.344,0.595-4.675,1.281-6.899,1.876
					l-12.633,3.418c-7.987,2.227-15.089,4.137-21.7,6.07l-9.502,2.714c-1.524,0.426-3.028,0.883-4.484,1.234l-2.205,0.656
					l-2.153,0.569c-5.728,1.601-11.108,2.937-16.394,4.13c-5.289,1.194-10.426,1.945-15.688,1.933
					c-5.271,0.058-10.697-0.6-16.438-1.601c-5.732-1.032-11.786-2.101-17.983-2.728c-3.099-0.342-6.227-0.438-9.371-0.503
					c-3.14,0.036-6.286,0.158-9.421,0.517c-12.54,1.348-25.395,3.68-38.502,6.536c-6.567,1.398-13.18,2.992-19.847,4.705
					c-6.683,1.683-13.383,3.567-20.08,5.638c-6.742,1.994-13.463,4.21-20.206,6.541c-6.78,2.276-13.489,4.812-20.288,7.349
					c-6.762,2.591-13.55,5.28-20.32,8.116c-3.407,1.389-6.777,2.856-10.173,4.318l-5.077,2.231l-5.019,2.233L2295.388,1316.452z"/>
			</g>
			<path fill="#E95F5F" d="M2612.31,1844.101c0,0,4.534,3.436,12.455,9.405c1.988,1.49,4.21,3.123,6.588,4.925
				c2.385,1.838,5.183,3.219,8.005,5.008c2.842,1.694,5.856,3.496,9.039,5.405c1.591,0.938,3.105,1.983,4.883,2.835
				c1.783,0.829,3.591,1.671,5.452,2.523c3.67,1.729,7.52,3.531,11.483,5.381c1.945,0.985,4.018,1.729,6.197,2.414
				c2.115,0.684,4.313,1.416,6.504,2.114c2.169,0.745,4.361,1.465,6.583,2.246c2.198,0.805,4.456,1.55,6.858,1.982
				c4.648,1.021,9.441,2.067,14.264,3.148c2.39,0.673,4.9,0.912,7.386,1.153c2.51,0.239,5.021,0.529,7.538,0.78
				c2.497,0.313,5.038,0.588,7.548,0.877c2.558,0.217,5.153,0.12,7.74,0.217c5.142-0.048,10.283,0.396,15.459,0.023
				c5.158-0.456,10.342-0.852,15.536-1.32c5.153-0.577,10.269-1.766,15.337-2.823c2.481-0.59,5.04-0.986,7.496-1.717l7.308-2.404
				c4.854-1.681,9.7-2.858,14.324-4.816c4.629-1.873,9.224-3.483,13.847-4.925c4.554-1.429,8.913-3.338,13.374-4.636
				c4.475-1.394,8.901-2.583,13.105-4.24c4.167-1.537,8.414-2.799,12.485-4.193c4.114-1.235,7.849-3.014,11.705-4.251
				c3.861-1.297,7.554-2.582,11.043-3.795c3.466-1.358,6.775-2.691,9.976-3.82c6.383-2.294,12.22-4.131,16.839-6.054
				c4.696-1.777,8.6-3.087,11.314-3.927c2.739-0.817,4.258-1.202,4.258-1.202l2.985,3.399c0,0-0.655,1.382-2.042,3.916
				c-1.381,2.51-3.508,6.09-6.432,10.545c-1.5,2.163-3.057,4.756-5.026,7.29c-2.018,2.451-4.215,5.069-6.732,7.808
				c-2.397,2.823-5.141,5.645-7.969,8.66c-3.021,2.847-6.329,5.705-9.831,8.588c-3.503,2.906-7.165,6.017-11.195,8.816
				c-4.15,2.63-8.354,5.477-12.906,8.154c-2.281,1.298-4.486,2.812-6.901,4.036c-2.455,1.117-4.899,2.354-7.441,3.471
				c-5.056,2.186-10.233,4.541-15.716,6.246c-11.122,3.182-22.767,5.789-34.94,6.57c-2.978,0.323-6.011,0.647-9.038,0.948
				c-3.015,0.252-6.138,0.144-9.159,0.252c-6.126-0.058-12.174,0.637-18.316,0.325c-6.072-0.325-12.162-0.625-18.245-0.937
				c-6.03-0.432-12.011-1.682-17.897-2.498c-2.979-0.504-5.915-0.829-8.804-1.478c-2.877-0.78-5.705-1.562-8.527-2.318
				c-2.811-0.804-5.604-1.585-8.372-2.354c-2.762-0.768-5.531-1.513-8.126-2.69c-5.236-2.114-10.358-4.168-15.398-6.222
				c-2.535-0.938-4.924-2.163-7.25-3.461c-2.275-1.272-4.552-2.533-6.81-3.77c-2.234-1.225-4.443-2.463-6.606-3.675
				c-2.192-1.141-4.305-2.366-6.209-3.843c-3.891-2.788-7.627-5.466-11.219-8.036c-1.813-1.297-3.548-2.582-5.237-3.795
				c-1.681-1.262-3.177-2.81-4.696-4.144c-2.967-2.716-5.801-5.309-8.425-7.747c-2.564-2.463-5.22-4.601-7.176-6.858
				c-1.922-2.283-3.694-4.397-5.297-6.295c-6.432-7.554-10.089-11.89-10.089-11.89L2612.31,1844.101z"/>
			<path fill="#4F2A14" d="M2546.64,1603.143c0,49.573-40.155,89.73-89.712,89.73c-49.539,0-89.712-40.157-89.712-89.73
				c0-49.541,40.173-89.695,89.712-89.695C2506.486,1513.448,2546.64,1553.603,2546.64,1603.143z"/>
			<path fill="#4F2A14" d="M3166.527,1609.237c0,49.574-40.156,89.731-89.713,89.731c-49.538,0-89.712-40.157-89.712-89.731
				c0-49.54,40.173-89.695,89.712-89.695C3126.371,1519.542,3166.527,1559.698,3166.527,1609.237z"/>
			<path opacity="0.33" fill="#FFFFFF" enable-background="new    " d="M2512.429,2625.445l-83.357-215.614l216.549-63.632
				c0,0,186.747,162.965,292.737-1.679l234.124,62.128l-83.775,252.143C3088.707,2658.791,2669.681,2837.763,2512.429,2625.445z"/>
			<path fill="#EED6B3" d="M2546.64,2969.492c0,0-127.915-465.847,62.559-465.835c200.034,0.013,203.103,136.828,203.103,136.828
				s-3.369-130.26,198.875-124.481c159.741,4.564,25.587,453.488,25.587,453.488H2546.64z"/>
			<path fill="#381B0F" d="M3220.832,1935.126c0,0,79.788,245.699,15.292,336.2c-64.497,90.501-348.513,532.406-111.585,794.494
				l412.713-470.503l54.544-662.884L3220.832,1935.126z"/>
			<path fill="#4F2A14" d="M3813.336,2932.563c-117.753,416.265,138.006,418.742-148.875,663.7
				c-12.41,10.667-24.657,20.114-36.505,28.708c-0.127,0.117-0.127,0.117-0.253,0.238
				c-261.902,188.675-387.414-104.38-387.414-104.38s104.833,56.721,141.404-52.832c36.571-109.554-298.255-42.512-257.176-402.218
				c41.075-359.586,211.529-337.631,254.048-658.654c42.645-321.138-176.508-347.886-183.17-598.897
				c-5.188-194.606,50.034-208.672,79.205-332.739c4.566-19.174,8.48-40.948,11.403-66.329c2.581-22.43,4.522-47.844,5.469-76.732
				c8.986-274.125-319.309-252.397-319.309-252.397c-328.631-44.066-427.981-90.747-604.824-104.18
				c-176.986-13.445-267.577,7.253-61.047-134.609c152.107-104.482,276.226-214.227,320.297-219.924
				c1032.592-133.497,906.245,480.781,899.875,802.742c-6.492,321.951,444.46,391.309,413.266,843.633
				C3908.532,2720.142,3878.333,2702.853,3813.336,2932.563z"/>
			<path fill="#60331A" d="M3627.955,3624.971c-0.127,0.117-0.127,0.117-0.253,0.238
				c-261.902,188.675-387.414-104.38-387.414-104.38s104.833,56.721,141.404-52.832c36.571-109.554-298.255-42.512-257.176-402.218
				c41.075-359.586,211.529-337.631,254.048-658.654c42.645-321.138-176.508-347.886-183.17-598.897
				c-5.188-194.606,50.034-208.672,79.205-332.739c-14.069,91.34-32.442,253.911-1.76,335.277
				c44.284,116.879,253.964,102.218,276.409,292.216c22.572,189.883-175.125,465.32-217.223,571.376
				C3175.97,3067.505,3944.465,3365.843,3627.955,3624.971z"/>
			<g>
				<path fill="#EBC3CC" d="M3281.162,1167.964c0,0-12.891,36.455,28.236,64.217c41.128,27.763,45.425,9.347,60.079,19.03
					c14.652,9.683,33.899,29.208,44.513,26.674c10.614-2.535,23.936-24.729,36.542-30.434c12.607-5.704,34.884-9.901,46.924-34.653
					s-3.504-44.04-3.504-44.04L3281.162,1167.964z"/>
				<path fill="#E97A8A" d="M3282.449,1162c0,0,9.935,33.966,17.406,46.657c7.351,12.488,27.385,38.337,53.879,29.486
					c26.495-8.851,21.247-31.999,53.267-37.681c32.02-5.683,65.234,23.78,75.254,21.107s9.082-49.66,9.082-49.66L3282.449,1162z"/>
				<path fill="#EBC3CC" d="M3232.751,978.143c0,0-28.691-46.158-25.007-56.573c3.682-10.416,14.336-10.436,20.495-23.406
					c6.158-12.969,8.872-56.81,29.843-68.829c20.97-12.019,95.781-15.859,109.8-8.829s47.616,47.17,47.616,47.17
					S3345.364,978.74,3232.751,978.143z"/>
				<path fill="#E97A8A" d="M3245.851,977.678c0,0-17.931-24.464-4.287-50.722c13.644-26.257,25.762-27.187,34.713-41.385
					c8.95-14.197,21.565-49.464,40.317-51.979s78.745,8.836,91.143,36.23C3420.136,897.218,3269.583,985.331,3245.851,977.678z"/>
				<path fill="#EBC3CC" d="M3209.313,918.31c0,0-18.956-10.819-33.649-4.226c-14.693,6.593-14.374,34.754-20.554,42.445
					s-29.605,14.127-28.021,39.552s1.623,27.939,7.722,39.386c6.099,11.445,29.94,22.019,32.415,38.257
					c2.475,16.237,15.88,50.059,36.553,66.158s70.157,29.526,93.621,25.606C3297.4,1165.489,3230.366,924.614,3209.313,918.31z"/>
				<path fill="#E97A8A" d="M3220.554,955.253c0,0-45.009,7.663-42.773,46.395c2.237,38.731,32.528,67.299,32.528,67.299
					l52.598-7.971C3262.907,1060.975,3256.098,966.679,3220.554,955.253z"/>
				<path fill="#EBC3CC" d="M3557.234,1149.902c-15.181,13.62-50.132,28.216-90.509,37.285
					c-46.039,10.353-99.179,13.562-138.059,0.005c-72.992-25.428-59.146-63.288-76.988-78.1c0,0-24.256-21.572-41.955-42.363
					c-13.79-16.172-23.566-31.834-14.82-36.457c20.005-10.566,64.934,51.909,76.854,57.196
					c11.921,5.288,18.198,18.654,48.909,23.942c30.713,5.287,109.563,32.456,137.365,31.428
					c27.802-1.029,101.504-0.117,111.445-45.403c9.941-45.286-52.395-38.535-52.395-38.535l3.901-5.98
					c0,0,33.385-3.484,48.118,11.229C3583.834,1078.862,3589.724,1120.726,3557.234,1149.902z"/>
				<path fill="#F195A2" d="M3466.726,1187.188c-46.039,10.353-99.179,13.562-138.059,0.005
					c-72.992-25.428-59.146-63.288-76.988-78.1c0,0-24.256-21.572-41.955-42.363c5.04-2.483,17.009-6.53,31.54,1.095
					c19.354,10.154,31.761,43.743,44.414,48.575c12.653,4.831,162.275,34.735,168.552,48.101
					C3458.118,1172.75,3464.286,1180.354,3466.726,1187.188z"/>
				<path fill="#F19FA8" d="M3282.907,1090.698c0,0-36.222-11.206-48.793-51.286c-12.571-40.08,11.866-85.743,11.866-85.743
					L3282.907,1090.698z"/>
				<path fill="#F195A2" d="M3265.66,923.976c0,0,9.528-41.79,21.707-48.344c12.177-6.554,25.636-12.81,27.748,2.09
					s-2.239,46.966-2.239,46.966s-2.809-26.34-13.913-17.283c-11.103,9.057-27.127,36.927-27.127,36.927L3265.66,923.976z"/>
				<path fill="#E97A8A" d="M3516.187,1056.442c0,0,52.03-2.678,55.26,22.095c3.232,24.774,1.727,76.807-139.634,63.917
					c0,0-137.758-20.966-164.593-58.185C3267.22,1084.268,3498.521,1095.31,3516.187,1056.442z"/>
				<path fill="#DD697B" d="M3498.583,1082.771c0,0,22.935,13.495,12.201,27.277c-10.733,13.782-48.276-2.496-48.276-2.496
					L3498.583,1082.771z"/>
				<path fill="#F19FA8" d="M3513.559,1060.577c0,0-23.884,43.292-51.051,46.975c-27.168,3.683-77.014-10.883-77.014-10.883
					S3490.136,1048.214,3513.559,1060.577z"/>
				<path fill="#ECCED3" d="M3386.681,1091.589c-1.672,4.373,38.555,3.886,55.944-3.521c17.388-7.407,28.537-22.97,35.21-22.04
					c6.673,0.931,10.102,5.488,18.466,4.309c8.365-1.18,29.498-13.435,29.419-18.465
					C3525.641,1046.844,3397.941,1062.123,3386.681,1091.589z"/>
				<path fill="#DD697B" d="M3275.303,971.114l9.524-4.068c0,0-19.626,101.552,91.307,124.109l-1.248,5.346
					c0,0-72.059-8.408-82.02-11.358S3265.965,1014.292,3275.303,971.114z"/>
				<path fill="#DD697B" d="M3357.406,1006.771c0,0,36.898,60.203,19.004,91.253c0,0,55.215-35.568,91.04-40.525
					c0,0-34.236-2.51-57.844-2.738C3389.638,1054.569,3372.678,1004.606,3357.406,1006.771z"/>
				<path fill="#F19FA8" d="M3357.406,1006.771c0,0,51.263,14.753,63.272,22.342c12.009,7.589,36.701,30.106,46.771,28.386
					c0,0-42.624,15.578-65.317,2.766C3379.441,1047.453,3357.406,1006.771,3357.406,1006.771z"/>
				<path fill="#DD697B" d="M3391.341,878.597c0,0-48.099-4.89-62.058,47.567C3329.283,926.164,3378.695,893.468,3391.341,878.597z"
					/>
				<path fill="#F19FA8" d="M3369.812,896.865c0,0-40.387,18.648-43.081,35.558s0.003,58.507,11.335,61.526
					c11.331,3.02,26.454,6.174,26.454,6.174S3357.961,906.118,3369.812,896.865z"/>
				<path fill="#EBC3CC" d="M3515.577,1051.93c0,0,42.923-48.038,24.404-97.869c0,0,23.789,12.144,31.306,30.929
					c7.518,18.785-24.545,68.237-27.809,68.17L3515.577,1051.93z"/>
				<path fill="#E97A8A" d="M3539.981,954.06c0,0,10.348,21.348,7.087,36.696c-4.052,19.073-14.759,50.809-31.689,61.621
					l-41.087,4.681l-4.752-1.109C3469.539,1055.95,3516.566,1012.72,3539.981,954.06z"/>
				<path fill="#DD697B" d="M3362.646,1001.565c0,0-3.745-91.576,45.388-124.961c49.132-33.385,98.506,12.728,108.224,27.454
					s60.39,66.014-46.719,151.892C3469.539,1055.95,3411.076,994.868,3362.646,1001.565z"/>
				<path fill="#EBC3CC" d="M3401.365,879.683c-3.721-2.747,43.544-34.939,71.821-24.582c28.277,10.356,31.524,28.653,40.197,34.435
					c8.673,5.783,29.338,16.242,33.708,28.538c4.37,12.294-7.254,48.382-12.056,51.665s-2.639-0.617-2.639-0.617
					s7.679-28.882-6.288-50.703c-15.255-23.834-28.509-33.517-54.787-41.203C3428.948,864.822,3401.365,879.683,3401.365,879.683z"
					/>
				<path fill="#E5DCE5" d="M3375.399,946.912c-2.108,4.981,4.381-37.814,23.332-46.546c18.95-8.732,63.039-2.994,66.302,3.8
					C3468.293,910.961,3399.572,889.782,3375.399,946.912z"/>
				<path fill="#E5DCE5" d="M3409.208,930.625c0,0,20.149-11.837,31.231-7.998c11.081,3.839,18.972,12.955,20.185,21.189
					C3460.625,943.816,3452.281,925.895,3409.208,930.625z"/>
				<path fill="#E5BBC4" d="M3411.052,922.723c0,0-18.179-7.994-26.37,16.368c-8.19,24.362-10.012,58.778-5.254,59.971
					c4.759,1.192,9.996-39.803,13.362-47.626s-2.497,31.82,10.891,43.418C3403.681,994.854,3392.787,933.203,3411.052,922.723z"/>
				<path fill="#E5DCE5" d="M3409.937,991.93c-0.997,3.521-3.988-36.443,5.898-48.051c9.886-11.608,20.768-12.55,28.054-8.77
					c15.432,8.006,10.855,33.905,2.675,31.996c-5.822-1.358,1.069-17.762-8.03-19.885
					C3424.278,943.892,3417.086,966.662,3409.937,991.93z"/>
				<path fill="#E97A8A" d="M3494.093,925.867c0,0,26.554,5.017,25.178,24.334c-1.375,19.315-21.439,80.713-57.145,97.913
					l-51.358-40.958c15.1-14.731,43.606-9.571,58.706-24.302C3482.149,970.489,3481.418,938.232,3494.093,925.867z"/>
				<path fill="#E5BBC4" d="M3505.404,927.628c-4.13-0.785,7.41,18.03,5.426,29.217c-1.983,11.186-4.835,44.346-0.914,45.26
					C3513.835,1003.02,3539.594,934.135,3505.404,927.628z"/>
				<path fill="#E6DEE5" d="M3488.263,982.507c0,0,9.038,13.522,0.088,27.721c-8.951,14.197-23.065,39.085-23.065,39.085
					l4.253,6.637c0,0,46.266-40.278,23.296-80.839L3488.263,982.507z"/>
				<path fill="#ECCED3" d="M3417.997,911.752c0,0,56.627,12.346,56.333,37.767c-0.295,25.422-13.15,53.666-85.326,51.582
					c0,0,54.337,16.79,85.802-5.309C3506.272,973.694,3520.19,913.697,3417.997,911.752z"/>
				<path fill="#E6DEE5" d="M3416.235,884.406c0,0,37.658-13.763,57.185,4.575c19.527,18.337,26.655,38.793,23.011,51.723
					C3492.788,953.634,3491.027,888.705,3416.235,884.406z"/>
				<path fill="#F19FA8" d="M3315.846,925.381c0,0-20.223,16.071-27.224,26.338c-7,10.268-7.327,42.138-4.561,64.707
					c2.767,22.57,12.429,72.43,92.072,74.729C3376.134,1091.155,3375.593,1015.625,3315.846,925.381z"/>
				<path fill="#ECCED3" d="M3376.41,1098.024c0,0-10.75-80.096-61.184-116.294c0,0,49.643,23.486,61.781,52
					C3389.144,1062.245,3398.326,1086.841,3376.41,1098.024z"/>
				<path fill="#ECCED3" d="M3391.341,878.597c0,0-33.115-28.24-59.223,1.214c-36.26,40.905-14.72,106.701,0.929,106.077
					c0,0-10.771-63.9,7.288-82.236C3353.501,890.284,3364.883,876.807,3391.341,878.597z"/>
				<path fill="#ECCED3" d="M3257.01,911.769c-4.51-3.5-12.832,30.83-10.951,46.93c1.881,16.098,7.216,18.229,5.36,26.306
					s-5.955,29.93,1.134,47.871c7.089,17.941,27.305,70.891,44.374,64.851c17.069-6.039-27.504-64.672-23.068-83.682
					C3278.295,995.035,3276.633,926.996,3257.01,911.769z"/>
				<path fill="#ECCED3" d="M3344.085,998.774c0,0,19.31,17.996,30.675,20.295s33.637,2.172,41.481,7.257
					c7.844,5.084,12.896,14.855,21.988,21.526s29.289,11.384,35.508,11.582c0,0-32.005-40.668-53.675-49.483
					S3349.223,992.778,3344.085,998.774z"/>
				<path fill="#F195A2" d="M3291.917,1070.876c-2.791-1.373,29.319,54.342,86.872,67.966c13.633,3.227,90.635-11.303,98.807-12.736
					c37.554-6.583,33.276-21.832,35.406-25.563C3515.133,1096.812,3354.846,1101.848,3291.917,1070.876z"/>
				<path fill="#ECCED3" d="M3365.531,1000.359c0,0-1.869,1.85-2.682-1.253c-3.947-15.051-13.7-65.599,3.758-96.841
					c21.055-37.682,37.115-23.285,37.115-23.285S3356.704,926.755,3365.531,1000.359z"/>
			</g>
			<g>
				<path fill="#EBC3CC" d="M2793.664,1056.617c0,0,28.262,42.752,90.477,21.424c62.214-21.328,46.168-40.582,68.113-48.347
					c21.946-7.765,57.97-12.529,63.767-25.78c5.796-13.25-7.039-45.069-3.004-62.959c4.035-17.89,17.388-44.806,0.823-77.309
					c-16.566-32.504-49.381-31.468-49.381-31.468L2793.664,1056.617z"/>
				<path fill="#E97A8A" d="M2788.383,1050.494c0,0,43.861,16.62,63.252,18.853c19.081,2.199,62.422,1.654,74.222-33.44
					c11.799-35.094-16.876-48.032,2.687-86.438c19.563-38.407,77.255-50.006,82.43-62.74c5.176-12.733-45.273-49.27-45.273-49.27
					L2788.383,1050.494z"/>
				<path fill="#EBC3CC" d="M2554.22,956.216c0,0-71.739-6.517-79.814-18.733c-8.075-12.214,0.413-23.499-8.387-40.372
					c-8.8-16.874-53.004-54.759-48.969-86.539s59.724-113.978,78.357-123.192c18.634-9.214,87.924-12.691,87.924-12.691
					S2644.793,837.579,2554.22,956.216z"/>
				<path fill="#E97A8A" d="M2564.189,941.988c0,0-40.197-0.574-57.072-35.976s-8.181-48.964-16.049-69.77
					c-7.868-20.808-35.096-62.317-22.778-84.16c12.318-21.844,72.238-76.234,111.116-67.468
					C2618.284,693.378,2591.24,922.998,2564.189,941.988z"/>
				<path fill="#EBC3CC" d="M2472.212,933.219c0,0-26.584,11.409-31.345,32.216c-4.76,20.808,25.281,42.962,28.48,55.642
					c3.2,12.68-8.704,42.597,19.455,61.229c28.158,18.631,30.85,20.598,47.827,23.29c16.978,2.691,47.205-14.082,66.356-3.731
					c19.152,10.351,65.633,23.185,99.172,14.177c33.539-9.007,87.264-50.625,101.859-78.576
					C2804.015,1037.466,2495.694,915.985,2472.212,933.219z"/>
				<path fill="#E97A8A" d="M2520.266,950.835c0,0-27.844,53.728,14.911,82.297c42.754,28.569,97.164,19.345,97.164,19.345
					l33.578-62.001C2665.918,990.475,2560.739,922.366,2520.266,950.835z"/>
				<path fill="#EBC3CC" d="M2995.055,750.183c2.282,26.935-10.195,75.562-32.85,125.512
					c-25.82,56.966-64.868,115.738-110.262,146.033c-85.193,56.898-114.18,12.015-144.096,19.056c0,0-42.19,8.428-78.317,10.541
					c-28.121,1.671-52.493-0.498-50.399-13.442c4.802-29.599,106.768-27.224,121.882-35.609s34.264-4.349,64.387-32.612
					c30.122-28.262,121.837-89.964,142.953-120.192c21.116-30.229,80.946-107.456,40.985-154.142
					c-39.96-46.685-82.606,24.641-82.606,24.641l-3.21-8.902c0,0,22.98-38.096,50.309-41.928
					C2941.159,665.308,2990.145,692.514,2995.055,750.183z"/>
				<path fill="#F195A2" d="M2962.205,875.695c-25.82,56.966-64.868,115.738-110.262,146.033
					c-85.193,56.898-114.18,12.015-144.096,19.056c0,0-42.19,8.428-78.317,10.541c1.399-7.312,6.678-23.205,26.349-32.485
					c26.198-12.362,71.636,1.342,86.853-8.182c15.217-9.525,166.347-143.9,185.499-139.864
					C2940.059,873.269,2953.028,872.818,2962.205,875.695z"/>
				<path fill="#F19FA8" d="M2713.33,993.061c0,0-40.782,29.364-93.216,10.649c-52.435-18.715-81.217-81.033-81.217-81.033
					L2713.33,993.061z"/>
				<path fill="#F195A2" d="M2523.208,878.144c0,0-36.592-43.456-33.798-61.571c2.795-18.116,6.927-37.349,24.375-27.682
					c17.446,9.667,47.889,39.88,47.889,39.88s-30.105-18.067-29.393,0.911c0.713,18.979,17.392,58.189,17.392,58.189
					L2523.208,878.144z"/>
				<path fill="#E97A8A" d="M2863.415,718.955c0,0,38.722-57.173,67.507-40.804c28.784,16.369,82.62,59.518-43.918,198.745
					c0,0-132.203,128.965-193.004,127.624C2694,1004.519,2890.417,768.684,2863.415,718.955z"/>
				<path fill="#DD697B" d="M2877.205,758.603c0,0,32.591-13.48,38.596,8.88c6.006,22.36-41.198,49.07-41.198,49.07
					L2877.205,758.603z"/>
				<path fill="#F19FA8" d="M2865.69,725.036c0,0,26.718,59.84,8.913,91.517c-17.803,31.678-73.021,72.767-73.021,72.767
					S2833.906,739.938,2865.69,725.036z"/>
				<path fill="#ECCED3" d="M2797.156,884.009c3.291,5.26,34.906-37.678,40.958-61.987c6.053-24.308-1.505-48.531,4.81-54.846
					s13.874-6.3,19.307-16.09c5.432-9.791,9.349-41.931,3.966-45.864C2860.814,701.287,2774.983,848.564,2797.156,884.009z"/>
				<path fill="#DD697B" d="M2580.769,905.594l3.304-13.322c0,0,91.74,101.867,204.2,2.546l4.659,5.59
					c0,0-66.446,69.503-77.522,77.682C2704.334,986.268,2618.981,949.957,2580.769,905.594z"/>
				<path fill="#DD697B" d="M2684.06,847.23c0,0,93.149,9.055,111.699,52.782c0,0,6.479-86.81,29.849-128.663
					c0,0-29.998,34.207-49.096,58.997C2760.362,851.312,2693.968,829.348,2684.06,847.23z"/>
				<path fill="#F19FA8" d="M2684.06,847.23c0,0,56.547-42.439,74.166-49.081c17.62-6.642,61.159-14.775,67.383-26.799
					c0,0-17.567,57.526-49.243,71.296C2744.689,856.414,2684.06,847.23,2684.06,847.23z"/>
				<path fill="#DD697B" d="M2575.59,708.963c0,0-43.589,46.971,0.748,103.632C2576.338,812.595,2581.22,734.217,2575.59,708.963z"
					/>
				<path fill="#F19FA8" d="M2577.718,746.327c0,0-12.533,57.612,3.203,73.967c15.735,16.355,61.887,46.725,74.131,37.151
					c12.244-9.574,27.658-23.05,27.658-23.05S2578.039,766.251,2577.718,746.327z"/>
				<path fill="#EBC3CC" d="M2858.156,715.995c0,0-16.53-83.769-84.028-103.981c0,0,31.844-15.462,57.718-8.411
					c25.875,7.051,52.574,80.463,49.895,83.861L2858.156,715.995z"/>
				<path fill="#E97A8A" d="M2774.127,612.015c0,0,30.845,6.104,44.475,21.813c16.939,19.519,41.955,56.192,39.869,82.735
					l-27.866,47.198l-4.969,4.142C2825.637,767.902,2817.472,683.633,2774.127,612.015z"/>
				<path fill="#DD697B" d="M2682.739,837.529c0,0-99.854-69.18-95.924-147.814c3.93-78.632,92.138-94.027,115.476-92.544
					c23.339,1.483,118.057-11.152,123.346,170.731C2825.637,767.902,2714.335,780.954,2682.739,837.529z"/>
				<path fill="#EBC3CC" d="M2584.745,699.229c-5.878,1.742-2.177-73.964,31.361-95.601c33.539-21.637,55.486-10.458,68.529-15.013
					c13.044-4.556,40.612-18.06,57.107-12.863c16.494,5.198,45.382,46.315,45.019,54.017c-0.364,7.701-2.76,2.3-2.76,2.3
					s-24.417-31.191-58.653-33.846c-37.394-2.9-58.222,3.386-87.338,25.041C2591.057,658.183,2584.745,699.229,2584.745,699.229z"/>
				<path fill="#E5DCE5" d="M2635.118,780.388c3.585,6.208-36.499-34.835-30.6-61.854c5.9-27.018,47.181-69.07,56.974-67.093
					S2593.995,709.19,2635.118,780.388z"/>
				<path fill="#E5DCE5" d="M2644.893,731.619c0,0,3.572-30.766,16.483-39.422c12.912-8.656,28.856-9.72,38.534-4.427
					C2699.91,687.77,2674.291,682.283,2644.893,731.619z"/>
				<path fill="#E5BBC4" d="M2638.007,723.357c0,0-22.975,12.844-3.748,40.966c19.228,28.121,54.175,57.536,59.237,53.455
					c5.062-4.08-34.117-42.363-39.704-52.171c-5.588-9.808,31.663,28.056,54.623,23.158
					C2708.415,788.765,2634.504,751.047,2638.007,723.357z"/>
				<path fill="#E5DCE5" d="M2710.317,779.813c2.929,3.867-41.731-24.887-46.113-44.616s3.312-31.991,13.129-36.679
					c20.793-9.929,44.533,15.598,35.981,22.725c-6.088,5.073-17.935-15.317-27.448-7.39
					C2670.962,726.277,2689.301,752.071,2710.317,779.813z"/>
				<path fill="#E97A8A" d="M2707.655,638.035c0,0,26.517-24.08,45.849-7.198c19.332,16.882,68.249,87.143,57.925,138.648
					l-84.342,21.61c-3.52-27.738,24.705-53.768,21.183-81.505C2745.315,686.308,2710.612,661.317,2707.655,638.035z"/>
				<path fill="#E5BBC4" d="M2718.553,627.477c-4.13,3.742,24.989,6.563,35.237,17.595c10.247,11.032,43.044,40.533,47.142,37.117
					C2805.031,678.773,2752.742,596.51,2718.553,627.477z"/>
				<path fill="#E6DEE5" d="M2762.91,689.438c0,0,21.522,1.24,29.391,22.047c7.868,20.808,22.919,55.614,22.919,55.614l10.417,0.803
					c0,0-5.65-81.106-66.899-89.207L2762.91,689.438z"/>
				<path fill="#ECCED3" d="M2631.949,707.249c0,0,58.286-50.036,84.939-29.42c26.654,20.615,46.262,56.772-13.589,131.448
					c0,0,61.157-44.064,62.915-94.996C2767.971,663.351,2715.627,600.711,2631.949,707.249z"/>
				<path fill="#E6DEE5" d="M2601.617,687.272c0,0,15.521-50.825,50.512-56.833s62.322,2.79,73.088,16.972
					C2735.984,661.592,2665.899,611.596,2601.617,687.272z"/>
				<path fill="#F19FA8" d="M2564.778,826.183c0,0,0.847,34.224,6.115,49.831c5.27,15.605,38.718,41.406,64.8,56.505
					c26.082,15.1,86.539,44.703,152.579-37.701C2788.273,894.818,2707.951,835.065,2564.778,826.183z"/>
				<path fill="#ECCED3" d="M2795.759,900.012c0,0-93.306-52.601-171.875-28.167c0,0,64.49-33.75,104.346-23.814
					C2768.085,857.966,2801.435,867.899,2795.759,900.012z"/>
				<path fill="#ECCED3" d="M2575.59,708.963c0,0-56.319,12.472-46.018,63.612c14.307,71.025,101.106,100.79,112.944,83.741
					c0,0-76.192-39.643-81.162-73.39C2557.73,758.322,2552.565,735.52,2575.59,708.963z"/>
				<path fill="#ECCED3" d="M2503.388,877.545c-7.304,1.975,22.362,38.198,40.892,49.066c18.531,10.869,25.045,6.927,32.107,15.342
					c7.06,8.414,26.901,30.203,51.54,37.035c24.637,6.83,96.792,27.738,104.037,4.86s-90.374-22.562-106.937-42.437
					C2608.462,921.534,2535.167,868.951,2503.388,877.545z"/>
				<path fill="#ECCED3" d="M2664.963,854.932c0,0,34.457-6.051,45.965-16.236c11.51-10.184,29.164-33.843,40.806-38.08
					c11.643-4.236,26.013-1.775,40.331-6.064s35.434-21.888,40.61-28.307c0,0-68.577,1.371-95.208,17.252
					S2662.724,844.709,2664.963,854.932z"/>
				<path fill="#F195A2" d="M2699.561,967.699c-3.681,1.855,80.896,12.39,141.274-37.603
					c14.303-11.842,60.434-104.895,65.446-114.683c23.031-44.98,3.483-52.633,1.238-57.867
					C2905.275,752.312,2782.581,925.874,2699.561,967.699z"/>
				<path fill="#ECCED3" d="M2683.768,833.514c0,0,0.463,3.454-3.468,1.838c-19.072-7.847-80.328-37.903-99.43-81.321
					c-23.04-52.368,5.013-57.856,5.013-57.856S2598.865,784.064,2683.768,833.514z"/>
			</g>
			<g>
				<path fill="#EBC3CC" d="M3034.234,1091.318c0,0,2.213,56.647,73.291,72.156c71.077,15.508,66.943-11.906,92.154-6.664
					c25.211,5.242,62.017,21.399,75.099,12.19c13.083-9.209,19.191-46.666,33.267-61.273c14.078-14.606,42.144-32.406,45.119-72.651
					c2.975-40.245-28.658-58.086-28.658-58.086L3034.234,1091.318z"/>
				<path fill="#E97A8A" d="M3032.751,1082.497c0,0,31.954,40.876,49.015,54.111c16.787,13.022,58.094,37.365,89.381,10.939
					c31.289-26.426,11.586-55.111,52.118-80.218s101.753-2.989,113.951-12.065c12.198-9.075-14.563-72.568-14.563-72.568
					L3032.751,1082.497z"/>
				<path fill="#EBC3CC" d="M2865.338,859.022c0,0-64.116-47.31-64.748-63.494c-0.633-16.185,13.868-21.99,15.222-42.997
					c1.353-21.007-18.729-82.194,3.315-109.939c22.045-27.745,121.862-73.552,144.77-71.58
					c22.909,1.972,90.442,38.424,90.442,38.424S3019.051,798.756,2865.338,859.022z"/>
				<path fill="#E97A8A" d="M2882.928,851.283c0,0-37.691-23.597-33.348-66.762c4.343-43.164,20.345-51.005,24.836-75.198
					s2.545-79.071,26.725-92.667c24.178-13.596,112.05-30.675,143.796-0.086C3076.682,647.159,2919.405,848.834,2882.928,851.283z"
					/>
				<path fill="#EBC3CC" d="M2800.96,790.235c0,0-31.688-4.456-48.125,12.495c-16.437,16.95-0.728,55.135-4.974,68.963
					c-4.245,13.828-32.663,35.299-16.716,69.072c15.948,33.773,17.365,37.177,31.881,49.459
					c14.514,12.282,52.724,13.755,64.902,34.529c12.177,20.775,48.781,59.573,85.671,70.289s111.575,2.165,141.41-15.902
					C3055.009,1079.14,2833.056,787.402,2800.96,790.235z"/>
				<path fill="#E97A8A" d="M2836.309,834.458c0,0-57.152,34.849-33.098,86.393c24.054,51.544,80.809,74.024,80.809,74.024
					l67.32-39.386C2951.34,955.49,2890.921,830.744,2836.309,834.458z"/>
				<path fill="#EBC3CC" d="M3400.473,916.982c-13.289,26.786-52.979,65.623-103.058,99.875
					c-57.093,39.074-127.735,72.268-188.047,74.888c-113.214,4.956-114.889-54.124-147.224-64.622c0,0-44.739-16.226-80.123-34.948
					c-27.555-14.547-49.365-30.578-39.959-41.619c21.517-25.242,116.6,35.487,135.705,36.224
					c19.105,0.736,34.905,15.538,79.605,6.083c44.701-9.456,166.839-15.215,204.149-31.696
					c37.311-16.481,138.195-55.213,127.174-122.29c-11.022-67.076-92.267-24.071-92.267-24.071l2.07-10.261
					c0,0,43.585-22.854,71.632-10.804C3398.174,805.791,3428.905,859.619,3400.473,916.982z"/>
				<path fill="#F195A2" d="M3297.415,1016.856c-57.093,39.074-127.735,72.268-188.047,74.888
					c-113.214,4.956-114.889-54.124-147.224-64.622c0,0-44.739-16.226-80.123-34.948c5.517-6.113,19.625-18.118,43.555-15.614
					c31.868,3.334,66.987,42.356,86.842,42.074c19.855-0.281,239.873-40.702,255.672-25.9
					C3277.86,1001.861,3290.386,1008.873,3297.415,1016.856z"/>
				<path fill="#F19FA8" d="M2994.702,985.128c0,0-55.415,4.383-94.277-43.391c-38.861-47.775-30.344-123.225-30.344-123.225
					L2994.702,985.128z"/>
				<path fill="#F195A2" d="M2880.783,767.391c0,0-9.687-62.089,3.345-77.622c13.033-15.533,27.973-31.353,38.931-12.203
					s22.424,65.186,22.424,65.186s-18.114-34.354-28.325-15.995c-10.21,18.36-16.922,65.013-16.922,65.013L2880.783,767.391z"/>
				<path fill="#E97A8A" d="M3293.872,811.943c0,0,69.417-31.869,87.254,0.123c17.838,31.993,44.01,103.682-155.527,162.795
					c0,0-199.012,46.159-255.752,10.018C2969.847,984.879,3290.89,874.467,3293.872,811.943z"/>
				<path fill="#DD697B" d="M3284.175,857.354c0,0,38.559,5.943,31.414,30.536c-7.144,24.593-67.111,22.784-67.111,22.784
					L3284.175,857.354z"/>
				<path fill="#F19FA8" d="M3292.536,819c0,0-9.05,71.923-44.058,91.674c-35.008,19.751-110.802,26.945-110.802,26.945
					S3253.926,814.865,3292.536,819z"/>
				<path fill="#ECCED3" d="M3136.536,930.058c0.095,6.863,54.624-15.619,74.292-35.139c19.667-19.52,26.412-46.767,36.006-49.118
					c9.594-2.351,16.737,1.998,27.49-4.147c10.753-6.144,32.892-34.298,30.056-41.106
					C3301.544,793.741,3135.892,883.816,3136.536,930.058z"/>
				<path fill="#DD697B" d="M2919.484,826.368l10.766-10.706c0,0,28.347,148.967,191.684,119.525l1.199,7.959
					c0,0-102.711,27.632-117.878,29.014C2990.088,973.544,2930.184,890.245,2919.484,826.368z"/>
				<path fill="#DD697B" d="M3050.656,830.405c0,0,82.912,61.989,75.38,113.988c0,0,55.917-78.394,102.025-104.577
					c0,0-47.992,15.15-80.274,27.645C3120.486,878.029,3070.285,819.174,3050.656,830.405z"/>
				<path fill="#F19FA8" d="M3050.656,830.405c0,0,77.827-7.71,98.301-3.887c20.475,3.824,66.321,21.102,79.104,13.298
					c0,0-49.608,44.336-87.467,39.193C3102.736,873.866,3050.656,830.405,3050.656,830.405z"/>
				<path fill="#DD697B" d="M3027.362,637.414c0,0-68.169,19.427-58.731,98.449C2968.631,735.863,3018.202,664.529,3027.362,637.414
					z"/>
				<path fill="#F19FA8" d="M3007.944,673.975c0,0-44.897,47.304-39.394,71.799c5.504,24.494,31.737,79.691,48.809,77.657
					c17.073-2.033,39.381-5.939,39.381-5.939S2996.821,693.005,3007.944,673.975z"/>
				<path fill="#EBC3CC" d="M3290.594,806.127c0,0,32.41-88.715-19.841-146.544c0,0,38.988,3.638,59.417,25.148
					c20.429,21.509,3.578,106.259-0.905,107.937L3290.594,806.127z"/>
				<path fill="#E97A8A" d="M3270.753,659.583c0,0,25.673,23.464,29.557,46.139c4.826,28.177,7.454,77.212-9.743,101.122
					l-53.427,28.66l-7.076,1.067C3230.065,836.572,3270.675,752.183,3270.753,659.583z"/>
				<path fill="#DD697B" d="M3054.971,820.472c0,0-54.769-122.704-5.954-194.826c48.816-72.121,141.079-36.091,162.302-21.304
					c21.224,14.787,118.061,57.162,18.746,232.23C3230.065,836.572,3117.306,785.081,3054.971,820.472z"/>
				<path fill="#EBC3CC" d="M3041.603,633.457c-6.558-1.724,40.361-71.209,84.495-72.438c44.133-1.23,58.479,21.931,73.429,25.103
					c14.949,3.172,48.771,6.211,61.391,20.588s16.361,69.836,11.601,76.911c-4.761,7.077-3.93,0.593-3.93,0.593
					s-5.205-43.507-36.064-65.653c-33.706-24.19-57.012-30.191-96.972-26.407C3071.115,598.254,3041.603,633.457,3041.603,633.457z"
					/>
				<path fill="#E5DCE5" d="M3042.7,739.113c-0.17,7.927-14.543-53.883,6.533-76.055c21.076-22.173,84.241-38.27,92.37-30.784
					C3149.731,639.76,3044.64,648.184,3042.7,739.113z"/>
				<path fill="#E5DCE5" d="M3079.917,698.591c0,0,21.024-27.052,38.202-27.834c17.177-0.781,32.868,7.356,38.987,17.914
					C3157.105,688.67,3136.021,668.786,3079.917,698.591z"/>
				<path fill="#E5BBC4" d="M3078.143,686.826c0,0-29.097-1.029-27.041,36.598c2.057,37.627,18.243,85.492,25.372,84.535
					c7.128-0.956-7.974-59.636-7.633-72.117c0.342-12.482,13.858,44.696,38.385,53.232
					C3107.225,789.075,3058.948,711.008,3078.143,686.826z"/>
				<path fill="#E5DCE5" d="M3114.159,781.697c0.553,5.338-25.198-47.474-18.027-68.647c7.171-21.174,21.48-28.359,33.456-27.161
					c25.361,2.534,33.175,40.294,20.999,42.13c-8.668,1.307-8.178-24.774-21.723-22.731
					C3107.64,708.489,3110.192,743.405,3114.159,781.697z"/>
				<path fill="#E97A8A" d="M3192.956,646.07c0,0,38.892-7.568,47.494,19.488c8.604,27.055,14.575,121.567-24.731,164.362
					l-92.168-27.932c12.578-28.255,54.205-36.688,66.782-64.943C3200.891,713.328,3182.399,669.787,3192.956,646.07z"/>
				<path fill="#E5BBC4" d="M3209.32,642.335c-6.053,1.169,19.872,20.54,23.237,36.852s17.466,63.026,23.302,62.146
					S3259.418,632.653,3209.32,642.335z"/>
				<path fill="#E6DEE5" d="M3215.737,726.381c0,0,19.646,13.517,15.154,37.711c-4.491,24.193-10.218,65.747-10.218,65.747
					l9.392,6.733c0,0,41.174-79.955-12.113-122.745L3215.737,726.381z"/>
				<path fill="#ECCED3" d="M3081.652,668.116c0,0,83.827-13.897,97.214,20.889c13.387,34.786,11.197,80.23-88.244,116.537
					c0,0,83.119-6.603,113.992-53.769C3235.487,704.609,3221.903,615.339,3081.652,668.116z"/>
				<path fill="#E6DEE5" d="M3064.421,631.824c0,0,43.829-39.171,80.372-24.785c36.543,14.386,57.346,38.383,59.397,57.971
					C3206.24,684.599,3168.625,597.114,3064.421,631.824z"/>
				<path fill="#F19FA8" d="M2949.904,742.084c0,0-18.829,32.857-22.796,50.641c-3.967,17.783,12.874,61.369,28.883,90.611
					c16.01,29.242,56.214,91.917,165.942,51.851C3121.934,935.187,3080.232,832.601,2949.904,742.084z"/>
				<path fill="#ECCED3" d="M3126.036,944.393c0,0-58.086-103.268-146.415-125.22c0,0,80.355,5.065,112.355,37.322
					C3123.974,888.752,3149.821,917.274,3126.036,944.393z"/>
				<path fill="#ECCED3" d="M3027.362,637.414c0,0-60.423-20.504-80.01,33.775c-27.204,75.385,37.823,153.321,58.799,143.984
					c0,0-49.33-81.196-34.675-115.967C2982.159,673.856,2990.352,649.327,3027.362,637.414z"/>
				<path fill="#ECCED3" d="M2862.38,755.456c-8.041-2.321-0.756,48.955,10.537,69.862c11.294,20.908,19.716,20.917,21.568,32.925
					c1.853,12.008,8.123,43.998,27.509,64.59c19.386,20.592,75.642,81.75,95.616,64.266s-72.54-73.174-76.808-101.472
					C2936.535,857.328,2897.368,765.555,2862.38,755.456z"/>
				<path fill="#ECCED3" d="M3028.176,826.738c0,0,36.062,14.039,52.789,11.006c16.727-3.032,46.995-15.284,60.437-12.614
					c13.442,2.671,25.623,13.24,41.625,17.395s46.07-0.379,54.646-3.482c0,0-65.651-38.034-99.948-38.289
					C3103.428,800.5,3031.922,815.784,3028.176,826.738z"/>
				<path fill="#F195A2" d="M2996.225,953.242c-4.547-0.357,69.409,58.117,155.191,45.459
					c20.321-2.998,117.324-64.554,127.678-70.938c47.581-29.335,33.482-47.786,34.362-54.024
					C3314.333,867.503,3098.738,961.297,2996.225,953.242z"/>
				<path fill="#ECCED3" d="M3058.246,817.265c0,0-1.543,3.533-4.334-0.25c-13.54-18.36-54.24-81.922-47.405-133.946
					c8.242-62.746,37.925-51.847,37.925-51.847S3006.304,721.796,3058.246,817.265z"/>
			</g>
			<path fill="#381B0F" d="M2064.428,1322.984c0,0-69.464,140.872-58.984,341.761c10.48,200.888,205.831,254.184,206.55,360.779
				c0.718,106.594-119.259,186.151-119.259,186.151s108.57,53.934,188.07-70.208c79.499-124.143-120.636-345.53-108.713-489.021
				c11.922-143.492,133.77-524.018,133.77-524.018l-178.847-75.581L2064.428,1322.984z"/>
			<g>
				<path fill="#EBC3CC" d="M2273.999,1145.908c0,0,37.923,7.544,59.517-37.132c21.594-44.676,2.753-46.295,10.241-62.182
					c7.488-15.888,24.059-37.73,20.032-47.872c-4.027-10.143-27.9-20.153-35.347-31.813c-7.449-11.661-14.79-33.108-41.01-41.483
					c-26.219-8.375-43.085,9.767-43.085,9.767L2273.999,1145.908z"/>
				<path fill="#E97A8A" d="M2267.912,1145.489c0,0,32.195-14.692,43.687-23.902c11.308-9.062,34.025-32.587,21.475-57.544
					c-12.55-24.955-34.71-16.451-44.914-47.329c-10.205-30.877,14.205-67.964,10.126-77.498c-4.079-9.535-50.45-1.886-50.45-1.886
					L2267.912,1145.489z"/>
				<path fill="#EBC3CC" d="M2093.055,1220.975c0,0-41.579,34.999-52.414,32.844c-10.836-2.156-12.379-12.697-26.097-16.937
					s-57.496-0.654-72.391-19.689c-14.896-19.035-29.398-92.528-24.445-107.408c4.952-14.881,39.874-53.875,39.874-53.875
					S2077.537,1109.436,2093.055,1220.975z"/>
				<path fill="#E97A8A" d="M2090.721,1208.077c0,0-21.648,21.246-49.587,11.499c-27.938-9.748-30.593-21.608-45.926-28.436
					c-15.331-6.827-52.04-14.268-57.211-32.467c-5.17-18.2-2.52-79.199,22.82-95.389
					C1986.156,1047.094,2094.899,1183.494,2090.721,1208.077z"/>
				<path fill="#EBC3CC" d="M2037.19,1252.731c0,0-7.997,20.308,0.631,33.907c8.628,13.598,36.454,9.255,44.95,14.27
					c8.496,5.016,18.216,27.28,43.153,22.076c24.938-5.204,27.421-5.603,37.876-13.277c10.455-7.673,17.51-32.782,33.227-37.553
					c15.716-4.773,47.272-22.878,60.249-45.641c12.976-22.763,19.187-73.658,11.949-96.322
					C2269.226,1130.191,2040.416,1230.993,2037.19,1252.731z"/>
				<path fill="#E97A8A" d="M2072.145,1236.321c0,0,14.022,43.451,52.036,35.696s61.954-41.821,61.954-41.821l-15.414-50.917
					C2170.721,1179.28,2078.369,1199.508,2072.145,1236.321z"/>
				<path fill="#EBC3CC" d="M2216.631,875.26c15.651,13.075,35.097,45.579,49.848,84.243c16.833,44.085,27.611,96.22,19.754,136.638
					c-14.724,75.88-54.175,67.592-66.283,87.368c0,0-17.88,27.093-35.925,47.584c-14.034,15.961-28.135,27.877-33.962,19.882
					c-13.32-18.288,42.086-71.691,45.614-84.246c3.528-12.554,15.859-20.679,16.698-51.831
					c0.84-31.152,16.451-113.079,11.456-140.447c-4.995-27.369-14.636-100.443-60.878-103.804s-30.644,57.368-30.644,57.368
					l-6.476-3.005c0,0-8.224-32.544,4.229-49.23C2142.516,859.095,2183.108,847.277,2216.631,875.26z"/>
				<path fill="#F195A2" d="M2266.479,959.503c16.833,44.085,27.611,96.22,19.754,136.638
					c-14.724,75.88-54.175,67.592-66.283,87.368c0,0-17.88,27.093-35.925,47.584c-3.178-4.633-8.896-15.9-3.428-31.372
					c7.281-20.608,38.75-37.692,41.721-50.907c2.973-13.214,11.165-165.574,23.496-173.699
					C2253.422,970.087,2260.065,962.895,2266.479,959.503z"/>
				<path fill="#F19FA8" d="M2197.277,1155.234c0,0-5.909,37.452-43.779,55.627c-37.87,18.175-86.558,0.523-86.558,0.523
					L2197.277,1155.234z"/>
				<path fill="#F195A2" d="M2034.737,1196.154c0,0-42.723-3.452-50.952-14.568c-8.229-11.115-16.345-23.541-1.9-27.763
					s46.803-4.503,46.803-4.503s-25.668,6.549-15.116,16.243c10.554,9.693,40.429,21.566,40.429,21.566L2034.737,1196.154z"/>
				<path fill="#E97A8A" d="M2130.003,929.254c0,0-10.094-51.111,13.963-57.853s75.769-12.697,83.233,129.053
					c0,0-1.044,139.341-34.042,171.225C2193.158,1171.68,2170.999,941.179,2130.003,929.254z"/>
				<path fill="#DD697B" d="M2158.58,942.911c0,0,10.076-24.629,25.251-15.979c15.176,8.651,4.436,48.138,4.436,48.138
					L2158.58,942.911z"/>
				<path fill="#F19FA8" d="M2134.472,931.263c0,0,46.263,17.445,53.795,43.807c7.531,26.361,0.245,77.778,0.245,77.778
					S2125.587,956.214,2134.472,931.263z"/>
				<path fill="#ECCED3" d="M2183.315,1052.4c4.567,1.029-1.67-38.715-11.487-54.865c-9.818-16.149-26.818-24.957-26.85-31.695
					c-0.034-6.738,3.987-10.784,1.623-18.893c-2.365-8.11-17.516-27.273-22.483-26.475
					C2119.151,921.27,2152.541,1045.471,2183.315,1052.4z"/>
				<path fill="#DD697B" d="M2080.011,1179.868l-5.388-8.845c0,0,103.315,4.897,109.772-108.121l5.469,0.469
					c0,0,1.987,72.521,0.492,82.801C2188.859,1156.451,2124.081,1182.932,2080.011,1179.868z"/>
				<path fill="#DD697B" d="M2103.557,1093.507c0,0,54.305-45.13,87.596-31.861c0,0-43.101-49.559-53.131-84.307
					c0,0,2.414,34.242,5.565,57.641C2146.252,1054.769,2099.23,1078.702,2103.557,1093.507z"/>
				<path fill="#F19FA8" d="M2103.557,1093.507c0,0,7.267-52.846,13.06-65.817c5.793-12.972,24.547-40.631,21.405-50.352
					c0,0,21.514,39.956,12.081,64.249C2140.667,1065.88,2103.557,1093.507,2103.557,1093.507z"/>
				<path fill="#DD697B" d="M1971.847,1078.256c0,0,2.04,48.304,55.954,54.615
					C2027.801,1132.871,1988.374,1088.644,1971.847,1078.256z"/>
				<path fill="#F19FA8" d="M1993.007,1096.951c0,0,24.232,37.304,41.354,37.551c17.122,0.246,57.906-8.373,59.273-20.02
					c1.366-11.647,2.324-27.064,2.324-27.064S2003.859,1107.357,1993.007,1096.951z"/>
				<path fill="#EBC3CC" d="M2125.625,930.503c0,0-53.684-35.61-100.353-10.153c0,0,8.616-25.281,26.131-35.409
					c17.517-10.128,71.048,14.532,71.448,17.771L2125.625,930.503z"/>
				<path fill="#E97A8A" d="M2025.271,920.35c0,0,19.647-13.295,35.304-12.264c19.457,1.282,52.398,7.339,65.521,22.549
					l10.51,39.996l-0.418,4.862C2136.188,975.493,2086.676,935.133,2025.271,920.35z"/>
				<path fill="#DD697B" d="M2097.654,1089.066c0,0-90.098,16.806-130.168-27.046c-40.07-43.852-1.494-99.313,11.69-111.038
					c13.185-11.726,56.696-69.212,157.012,24.51C2136.188,975.493,2084.098,1042.092,2097.654,1089.066z"/>
				<path fill="#EBC3CC" d="M1971.488,1068.18c-2.186,4.075-40.809-38.098-34.604-67.567c6.205-29.467,23.85-35.298,28.332-44.709
					s11.878-31.36,23.421-37.444s48.922,0.258,52.858,4.542c3.936,4.283-0.232,2.701-0.232,2.701s-29.684-3.469-49.283,13.475
					c-21.407,18.508-29.094,33.011-32.942,60.118C1952.834,1043.006,1971.488,1068.18,1971.488,1068.18z"/>
				<path fill="#E5DCE5" d="M2041.74,1084.261c5.232,1.373-38.052,1.074-49.406-16.433c-11.353-17.506-11.981-61.963-5.723-66.162
					C1992.87,997.465,1981.739,1068.509,2041.74,1084.261z"/>
				<path fill="#E5DCE5" d="M2020.784,1053.13c0,0-14.598-18.249-12.384-29.766c2.214-11.517,10.108-20.63,18.083-23.008
					C2026.483,1000.356,2009.941,1011.177,2020.784,1053.13z"/>
				<path fill="#E5BBC4" d="M2012.699,1052.435c0,0-5.312,19.137,19.972,23.758c25.284,4.621,59.606,1.501,60.105-3.38
					c0.5-4.88-40.823-4.199-49.047-6.411c-8.225-2.211,31.85-2.08,41.414-16.99
					C2085.143,1049.412,2025.684,1069.014,2012.699,1052.435z"/>
				<path fill="#E5DCE5" d="M2081.354,1043.64c3.627,0.482-35.497,9.16-48.399,1.036c-12.904-8.125-15.393-18.759-12.694-26.511
					c5.717-16.418,32.004-15.594,31.284-7.226c-0.511,5.957-17.732,1.483-18.532,10.792
					C2031.759,1036.317,2055.323,1040.179,2081.354,1043.64z"/>
				<path fill="#E97A8A" d="M2003.932,969.8c0,0,1.168-26.999,20.481-28.401s82.95,9.673,105.082,42.551l-33.19,56.689
					c-16.74-12.838-15.711-41.788-32.45-54.626C2049.804,975.237,2017.983,980.575,2003.932,969.8z"/>
				<path fill="#E5BBC4" d="M2004.058,958.352c-0.187,4.201,16.785-9.913,28.139-9.55c11.354,0.364,44.582-1.557,44.926-5.568
					C2077.468,939.223,2005.606,923.584,2004.058,958.352z"/>
				<path fill="#E6DEE5" d="M2060.823,967.466c0,0,12.091-10.88,27.423-4.052c15.332,6.827,41.982,17.237,41.982,17.237l5.96-5.158
					c0,0-46.481-40.029-83.34-11.492L2060.823,967.466z"/>
				<path fill="#ECCED3" d="M2000.848,1047.131c0,0,4.118-57.811,29.32-61.156c25.203-3.345,54.995,5.337,63.257,77.069
					c0,0,8.844-56.179-17.528-84.161C2049.524,950.904,1988.154,945.712,2000.848,1047.131z"/>
				<path fill="#E6DEE5" d="M1974.035,1052.787c0,0-19.009-35.302-3.653-57.251c15.355-21.949,34.58-31.93,47.899-30.173
					C2031.6,967.118,1967.59,978.15,1974.035,1052.787z"/>
				<path fill="#F19FA8" d="M2028.949,1146.282c0,0,18.798,17.716,29.961,23.176c11.164,5.46,42.753,1.224,64.694-4.743
					c21.942-5.966,69.908-22.662,60.791-101.814C2184.394,1062.901,2109.718,1074.24,2028.949,1146.282z"/>
				<path fill="#ECCED3" d="M2191.153,1061.646c0,0-77.735,22.097-106.346,77.191c0,0,16.142-52.492,42.628-68.584
					C2153.92,1054.161,2176.949,1041.555,2191.153,1061.646z"/>
				<path fill="#ECCED3" d="M1971.847,1078.256c0,0-23.213,36.814,9.673,58.44c45.672,30.036,107.709-0.696,104.854-16.094
					c0,0-61.703,19.801-82.433,4.551C1988.827,1114.034,1973.86,1104.699,1971.847,1078.256z"/>
				<path fill="#ECCED3" d="M2023.894,1206.461c-2.819,4.964,32.349,8.289,48.014,4.125c15.664-4.164,17.01-9.75,25.269-9.068
					c8.259,0.681,30.473,1.612,47.216-7.97c16.742-9.582,66.256-37.165,57.836-53.194c-8.418-16.03-60.073,36.471-79.522,34.8
					C2103.258,1173.483,2036.157,1184.861,2023.894,1206.461z"/>
				<path fill="#ECCED3" d="M2097.548,1107.834c0,0,15.048-21.685,15.698-33.262c0.649-11.576-2.662-33.602,1.248-42.092
					c3.909-8.491,12.857-14.889,18.16-24.842c5.301-9.952,7.077-30.617,6.383-36.798c0,0-35.671,37.493-41.295,60.2
					C2092.118,1053.749,2090.878,1103.608,2097.548,1107.834z"/>
				<path fill="#F195A2" d="M2176.371,1149.153c-0.96,2.958,49.589-36.791,54.841-95.701c1.244-13.955-24.153-88.086-26.74-95.969
					c-11.887-36.227-26.368-29.81-30.365-31.386C2170.109,924.522,2198.022,1082.44,2176.371,1149.153z"/>
				<path fill="#ECCED3" d="M2096.048,1086.382c0,0,2.098,1.586-0.855,2.835c-14.332,6.06-62.966,22.943-96.383,10.134
					c-40.305-15.45-28.355-33.402-28.355-33.402S2024.464,1105.647,2096.048,1086.382z"/>
			</g>
			<g>
				<path fill="#EBC3CC" d="M2518.804,1056.57c0,0,37.331,28.338,84.565-8.9c47.232-37.238,27.556-48.997,44.144-62.341
					c16.588-13.344,46.234-28.36,47.225-41.55c0.991-13.19-19.717-36.763-21.65-53.422c-1.933-16.66,1.442-43.929-22.692-66.965
					c-24.134-23.036-52.139-12.208-52.139-12.208L2518.804,1056.57z"/>
				<path fill="#E97A8A" d="M2512.392,1052.885c0,0,42.883,1.064,60.292-2.877c17.132-3.88,54.369-17.47,53.929-51.326
					c-0.44-33.857-29.103-36.342-23.847-75.408c5.257-39.066,51.533-66.54,52.144-79.095c0.611-12.556-53.984-28.815-53.984-28.815
					L2512.392,1052.885z"/>
				<path fill="#EBC3CC" d="M2281.776,1042.409c0,0-63.882,16.091-74.548,7.994c-10.666-8.096-6.758-20.404-19.458-32.301
					c-12.702-11.897-62.318-31.211-68.456-59.858c-6.137-28.648,17.039-116.439,30.33-130.031
					c13.29-13.592,72.034-37.568,72.034-37.568S2324.026,912.61,2281.776,1042.409z"/>
				<path fill="#E97A8A" d="M2286.073,1027.112c0,0-34.864,11.673-60.143-13.77c-25.281-25.443-21.882-39.778-34.971-55.353
					c-13.089-15.574-49.151-43.153-45.133-65.732c4.018-22.58,39.263-87.656,75.468-91.86
					C2257.498,796.192,2303.667,1002.536,2286.073,1027.112z"/>
				<path fill="#EBC3CC" d="M2204.044,1047.387c0,0-19.488,17.893-17.299,37.29c2.19,19.397,34.822,29.422,41.422,39.396
					c6.599,9.974,5.383,39.395,35.324,46.95c29.94,7.555,32.857,8.438,48.324,5.62c15.465-2.817,36.473-26.44,56.133-23.305
					c19.661,3.134,63.658,0.14,89.875-17.787c26.217-17.926,59.981-70.104,64.116-98.642
					C2521.939,1036.91,2219.091,1025.407,2204.044,1047.387z"/>
				<path fill="#E97A8A" d="M2250.845,1048.044c0,0-7.765,54.794,37.78,66.506c45.544,11.712,89.706-12.717,89.706-12.717
					l10.209-63.671C2388.54,1038.161,2277.156,1011.223,2250.845,1048.044z"/>
				<path fill="#EBC3CC" d="M2599.839,731.161c10.123,22.554,14.075,68.294,9.646,118.259
					c-5.038,56.976-20.945,119.515-50.948,159.401c-56.296,74.891-94.898,44.932-118.585,60.063c0,0-33.857,20.045-64.396,32.805
					c-23.761,9.954-45.451,15.46-47.562,3.656c-4.815-26.996,83.898-55.812,94.403-67.624
					c10.503-11.813,28.252-14.127,45.692-47.634c17.44-33.508,77.909-114.519,86.982-146.998s37.326-117.236-11.291-145.428
					c-48.617-28.191-63.829,46.272-63.829,46.272l-5.464-6.712c0,0,8.299-39.833,30.722-51.412
					C2527.635,674.231,2578.145,682.881,2599.839,731.161z"/>
				<path fill="#F195A2" d="M2609.484,849.419c-5.038,56.976-20.945,119.515-50.948,159.401
					c-56.296,74.891-94.898,44.932-118.585,60.063c0,0-33.857,20.045-64.396,32.805c-1.006-6.734-1.262-22.047,12.906-36.01
					c18.867-18.599,62.226-20.527,72.474-33.352c10.249-12.826,99.994-174.538,117.744-176.852
					C2589.639,854.029,2600.694,849.714,2609.484,849.419z"/>
				<path fill="#F19FA8" d="M2430.238,1026.041c0,0-26.305,37.685-77.22,37.407c-50.916-0.278-94.617-45.345-94.617-45.345
					L2430.238,1026.041z"/>
				<path fill="#F195A2" d="M2231.38,984.421c0,0-44.733-26.424-47.805-42.904c-3.073-16.48-5.328-34.328,12.654-31.266
					c17.983,3.061,53.399,19.918,53.399,19.918s-31.449-6.477-25.088,9.684c6.36,16.163,32.623,44.951,32.623,44.951
					L2231.38,984.421z"/>
				<path fill="#E97A8A" d="M2476.783,744.06c0,0,16.11-61.061,45.905-55.648c29.796,5.413,89.316,26.352,22.263,184.807
					c0,0-75.05,151.313-127.926,168.561C2417.025,1041.78,2515.139,778.802,2476.783,744.06z"/>
				<path fill="#DD697B" d="M2500.686,774.102c0,0,24.045-21.499,35.996-4.021s-20.699,54.817-20.699,54.817L2500.686,774.102z"/>
				<path fill="#F19FA8" d="M2480.588,748.619c0,0,41.169,43.553,35.394,76.279s-40.988,84.9-40.988,84.9
					S2457.669,771.101,2480.588,748.619z"/>
				<path fill="#ECCED3" d="M2469.567,906.556c4.432,3.542,18.716-43.082,16.582-65.891s-15.99-41.426-12.452-48.787
					c3.537-7.362,10.066-9.637,11.79-19.731c1.725-10.093-4.625-39.016-10.461-40.781S2439.703,882.679,2469.567,906.556z"/>
				<path fill="#DD697B" d="M2289.364,990.686l-1.182-12.498c0,0,110.006,60.139,176.992-59.616l5.712,3.414
					c0,0-36.302,80.094-43.385,90.505C2420.417,1022.902,2335.77,1017.402,2289.364,990.686z"/>
				<path fill="#DD697B" d="M2360.833,909.051c0,0,83.127-20.382,112.372,11.738c0,0-20.688-76.877-13.189-120.069
					c0,0-15.533,38.6-24.509,65.775C2427.917,889.477,2363.971,890.62,2360.833,909.051z"/>
				<path fill="#F19FA8" d="M2360.833,909.051c0,0,35.952-53.742,49.147-64.806c13.194-11.066,48.305-31.263,50.036-43.524
					c0,0,2.254,54.962-20.913,76.433C2415.936,898.624,2360.833,909.051,2360.833,909.051z"/>
				<path fill="#DD697B" d="M2225.372,822.566c0,0-23.398,53.729,32.016,89.205C2257.388,911.771,2237.875,842.656,2225.372,822.566
					z"/>
				<path fill="#F19FA8" d="M2238.518,854.166c0,0,6.625,53.511,25.155,62.862c18.531,9.351,67.552,21.589,75.22,9.62
					c7.668-11.968,16.891-28.264,16.891-28.264S2244.828,871.263,2238.518,854.166z"/>
				<path fill="#EBC3CC" d="M2471.349,743.098c0,0-39.623-67.287-103.991-64.296c0,0,22.8-22.984,47.263-24.73
					c24.464-1.748,69.726,53.523,68.444,57.267L2471.349,743.098z"/>
				<path fill="#E97A8A" d="M2367.358,678.802c0,0,28.466-4.069,44.984,5.361c20.526,11.717,53.216,35.792,59.451,59.33
					l-9.76,49.166l-3.034,5.077C2458.998,797.736,2426.443,727.485,2367.358,678.802z"/>
				<path fill="#DD697B" d="M2356.757,901.08c0,0-107.114-29.473-127.526-98.522s51.051-109.035,71.64-114.82
					c20.589-5.785,98.505-45.361,158.127,109.999C2458.998,797.736,2366.899,842.692,2356.757,901.08z"/>
				<path fill="#EBC3CC" d="M2230.326,811.394c-4.546,3.283-24.269-63.17-1.875-91.995s44.717-25.821,54.594-33.701
					c9.876-7.879,29.58-27.878,45.387-28.386c15.809-0.507,53.184,26.232,55.202,32.988c2.018,6.756-1.686,2.82-1.686,2.82
					s-30.512-19.526-60.861-11.455c-33.148,8.817-49.219,20.546-67.792,48.049C2223.348,774.061,2230.326,811.394,2230.326,811.394z
					"/>
				<path fill="#E5DCE5" d="M2298.364,866.184c4.973,4.272-42.042-19.014-45.131-44.115c-3.087-25.103,19.809-73.888,28.858-75.147
					C2291.14,745.664,2241.324,817.19,2298.364,866.184z"/>
				<path fill="#E5DCE5" d="M2292.037,821.138c0,0-6.231-27.632,2.292-39.009c8.521-11.379,21.959-17.124,31.913-15.486
					C2326.242,766.643,2302.473,769.663,2292.037,821.138z"/>
				<path fill="#E5BBC4" d="M2283.594,816.093c0,0-15.94,18.039,9.166,36.488c25.106,18.448,64.168,33.253,67.302,28.199
					c3.133-5.054-42.266-26.231-50.056-33.004c-7.792-6.773,35.817,14.627,54.148,3.449
					C2364.154,851.225,2288.953,841.049,2283.594,816.093z"/>
				<path fill="#E5DCE5" d="M2363.085,842.924c3.698,2.45-43.547-8.845-53.3-24.543c-9.754-15.7-6.825-28.61,0.228-35.628
					c14.939-14.862,43.152-0.021,37.93,8.719c-3.718,6.222-20.114-7.789-25.924,1.932
					C2312.917,808.637,2336.551,825.344,2363.085,842.924z"/>
				<path fill="#E97A8A" d="M2317.871,721.378c0,0,15.594-28.807,37.388-20.09c21.793,8.716,85.276,54.542,91.958,102.115
					l-66.243,44.18c-11.435-22.871,5.044-53.879-6.393-76.75C2364.982,751.637,2327.47,740.575,2317.871,721.378z"/>
				<path fill="#E5BBC4" d="M2324.08,708.969c-2.433,4.479,23.551-1.902,35.734,4.517s49.416,21.95,51.919,17.761
					C2414.237,727.058,2344.211,671.896,2324.08,708.969z"/>
				<path fill="#E6DEE5" d="M2381.115,749.012c0,0,18.948-5.445,32.038,10.13c13.089,15.574,36.614,41.056,36.614,41.056
					l9.232-2.461c0,0-29.427-68.282-84.737-56.732L2381.115,749.012z"/>
				<path fill="#ECCED3" d="M2273.49,804.026c0,0,35.153-60.823,64.396-51.1c29.241,9.722,57.108,34.987,28.063,117.551
					c0,0,39.439-56.541,25.537-101.025C2377.585,724.967,2313.452,686.756,2273.49,804.026z"/>
				<path fill="#E6DEE5" d="M2241.267,795.967c0,0-1.992-48.558,26.387-64.335c28.378-15.777,54.626-16.458,68.211-7.479
					C2349.448,733.132,2273.833,711.202,2241.267,795.967z"/>
				<path fill="#F19FA8" d="M2251.525,926.996c0,0,11.091,29.279,20.362,41.152s45.947,24.011,73.025,29.147
					c27.08,5.136,88.214,12.382,120.261-78.722C2465.173,918.573,2377.77,891.321,2251.525,926.996z"/>
				<path fill="#ECCED3" d="M2473.206,920.789c0,0-96.445-17.15-156.852,27.721c0,0,45.438-48.648,82.84-52.138
					S2468.383,891.359,2473.206,920.789z"/>
				<path fill="#ECCED3" d="M2225.372,822.566c0,0-44.826,27.812-20.456,68.825c33.846,56.962,117.761,56.374,122.816,38.078
					c0,0-77.752-11.148-92.258-38.766C2224.901,870.567,2213.542,852.453,2225.372,822.566z"/>
				<path fill="#ECCED3" d="M2214.095,989.904c-5.705,3.916,30.86,26.195,50.142,29.964c19.282,3.77,23.711-1.602,32.351,3.521
					c8.64,5.124,32.358,17.922,55.688,16.358c23.329-1.563,91.926-5.362,91.253-27.298c-0.673-21.937-84.821,7.886-105.131-4.252
					C2318.087,996.06,2238.918,972.868,2214.095,989.904z"/>
				<path fill="#ECCED3" d="M2346.686,921.479c0,0,27.904-15.652,34.753-27.925c6.849-12.274,14.922-38.035,23.687-45.215
					c8.764-7.18,21.91-9.407,32.968-17.442c11.058-8.036,23.954-29.615,26.478-36.722c0,0-58.766,21.944-76.941,43.709
					C2369.455,859.651,2341.658,913.335,2346.686,921.479z"/>
				<path fill="#F195A2" d="M2410.678,1008.322c-2.615,2.715,73.562-13.795,110.533-75.216
					c8.758-14.55,20.401-108.817,21.763-118.781c6.259-45.789-12.926-46.476-16.448-50.313
					C2523.005,760.175,2469.661,947.096,2410.678,1008.322z"/>
				<path fill="#ECCED3" d="M2356.429,897.304c0,0,1.446,2.841-2.436,2.635c-18.834-0.998-80.795-8.394-110.423-40.08
					c-35.735-38.217-13.186-51.446-13.186-51.446S2268.192,880.329,2356.429,897.304z"/>
			</g>
			<g>
				<path fill="#F1E3C3" d="M2793.853,2998.643v44.645c0,0-0.123,0.12-0.369,0.366c-40.095,44.771-124.222,138.985-121.025-45.011
					c0.738-42.434,7.502-65.436,17.588-75.519C2723.624,2889.301,2793.853,2998.643,2793.853,2998.643z"/>
				<path fill="#F1E3C3" d="M2839.125,2998.703c0,0,118.38-184.49,121.455,0c3.075,184.489-81.483,89.17-121.455,44.585V2998.703z"
					/>
				<path fill="#EDBBC9" d="M2850.799,3019.056v6.15c0,15.5-12.668,28.046-28.164,28.046h-13.038
					c-15.374,0-28.043-12.546-28.043-28.046v-6.15c0-15.375,12.668-28.04,28.043-28.04h13.038
					C2838.13,2991.016,2850.799,3003.681,2850.799,3019.056z"/>
				<path fill="#DCCCA7" d="M2793.484,3043.654c-40.095,44.771-124.222,138.985-121.025-45.011
					c0.738-42.434,7.502-65.436,17.588-75.519c0,0-20.54,143.165,20.785,153.001
					C2749.822,3085.35,2789.18,3047.84,2793.484,3043.654z"/>
				<path fill="#DCCCA7" d="M2839.337,3043.654c40.095,44.771,124.223,138.985,121.025-45.011
					c-0.739-42.434-7.503-65.436-17.588-75.519c0,0,20.54,143.165-20.786,153.001
					C2882.999,3085.35,2843.641,3047.84,2839.337,3043.654z"/>
				<path fill="#D79FB0" d="M2850.799,3022.131v3.075c0,15.5-12.668,28.046-28.164,28.046h-13.038
					c-15.374,0-28.043-12.546-28.043-28.046v-3.075C2781.554,3022.131,2814.393,3066.655,2850.799,3022.131z"/>
			</g>
		</g>
		<g>
			<path fill="#F3AE97" d="M313.834,3323.321l-59.717,204.394c0,0,71.91,112.825,208.608,56.189l-14.8-222.977L313.834,3323.321z"/>
			<path fill="#F3AE97" d="M1719.08,1227.517c0.552,35.083-1.384,70-6.088,104.475c0,0-13.889,112.499-78.854,245.638
				c-38.127,78.246-93.849,163.573-174.752,237.448c-118.862,108.57-292.009,192.349-543.29,192.349
				c-289.243,0-479.378-83.281-604.272-191.076c-73.874-63.748-125.005-136.073-160.31-204.856
				c-74.095-144.427-78.633-273.028-78.633-273.028s-1.992-21.857-0.94-59.375c3.376-108.349,33.367-348.342,216.586-576.327
				c320.287-45.542,871.767-107.464,1201.626-50.854C1627.775,815.152,1715.926,1024.6,1719.08,1227.517z"/>
			<path fill="#040505" d="M1004.796,2272.274c0,11.586-10.016,20.903-22.489,20.903c-12.388,0-22.499-9.317-22.499-20.903
				c0-11.532,10.111-20.848,22.499-20.848C994.78,2251.426,1004.796,2260.741,1004.796,2272.274L1004.796,2272.274z"/>
			<polygon fill="#F3AE97" points="801.99,1991.107 1022.313,1995.538 1022.313,2146.06 801.99,2146.06 			"/>
			<path fill="#F3AE97" d="M1271.714,2632.866c-8.116,2.799-37.083,38.146,26.399,40.819c47.593,2.003-3.009,55.156-50.048,65.714
				h-0.034c-2.419,0.573-4.834,1.092-7.25,1.643c-1.133-8.473-2.226-16.622-3.283-24.425c-3.323-24.956-6.041-46.247-8.005-62.34
				c-1.548-12.484-2.64-21.854-3.283-27.312c-0.416-3.718-0.642-5.642-0.642-5.642l-611.992-4.95c0,0-0.038,0.886-0.113,2.572
				c-0.078,2.313-0.265,6.084-0.491,11.208c-0.716,16.655-2.264,47.425-5.021,86.798c-0.716,9.889-1.473,20.308-2.342,31.224
				c-1.17-0.195-2.338-0.422-3.472-0.692l-0.036-0.032c-51.455-10.148-83.689-17.426-133.14-32.644
				c-7.173-2.15,19.275-19.38,12.174-21.671c2.043-30.435-20.064-55.228-17.8-84.755c10.797-140.913,4.08-265.328,15.931-331.44
				c5.134-28.684,8.603-45.641,8.794-46.732v-0.033l0.039-0.043c0-0.053,0.038,0,0.038,0l10.832-3.21l59.948-17.627h0.036l49-14.418
				h0.038l191.692-56.363h2.302l219.967-0.227l0.378,0.119l212.904,56.503h0.04l54.358,14.418h0.039l29.029,7.706l35.371,9.403
				v0.075c0.038,0.151,0.113,0.455,0.189,0.908c0.039,0.259,0.113,0.563,0.152,0.897v0.076c0.716,3.394,2.15,11.132,4.263,22.61
				c10.571,58.546-59.83,198.025-48.052,367.091C1311.974,2637.582,1270.433,2613.087,1271.714,2632.866z"/>
			<g opacity="0.45">
				<g>
					<g>
						<g>
							<g>
								<path fill="#D59A64" d="M1677.988,1458.074c0,0-355.187,660.706-1008.441,522.062
									C669.547,1980.137,1440.88,2197.937,1677.988,1458.074"/>
							</g>
						</g>
					</g>
				</g>
			</g>
			<g opacity="0.45">
				<g>
					<g>
						<defs>
							<rect id="SVGID_19_" x="801.99" y="1999.267" width="220.323" height="62.188"/>
						</defs>
						<clipPath id="SVGID_20_">
							<use xlink:href="#SVGID_19_"  overflow="visible"/>
						</clipPath>
						<g clip-path="url(#SVGID_20_)">
							<g>
								<defs>
									<rect id="SVGID_21_" x="801.99" y="1999.267" width="220.323" height="62.188"/>
								</defs>
								<clipPath id="SVGID_22_">
									<use xlink:href="#SVGID_21_"  overflow="visible"/>
								</clipPath>
								<path clip-path="url(#SVGID_22_)" fill="#D59A64" d="M801.99,1999.267c0,0,122.263,3.08,220.323,4.464v57.724
									c0,0-217.99-46.095-220.323-47.004V1999.267z"/>
							</g>
						</g>
					</g>
				</g>
			</g>
			<path fill="#D59A64" d="M926.164,2335.758c0,0,1.018,3.125,2.4,7.868c1.477,4.68,3.107,10.916,4.591,17.455
				c0.786,3.253,1.696,6.528,1.907,9.706c0.197,3.242-0.24,6.117-0.922,8.527c-1.229,4.994-3.213,8.182-3.213,8.182
				c-0.135,0.162-0.439,0.302-0.691,0.108c-0.081,0-0.146-0.064-0.146-0.195c0,0-1.849-3.284-2.821-8.116
				c-0.327-1.199-0.505-2.508-0.637-3.913c-0.255-1.318-0.452-2.755-0.492-4.172c-0.054-1.426,0.024-2.961,0.213-4.54
				c0.083-1.545-0.027-3.145,0-4.745c-0.173-6.387-0.721-12.936-0.816-17.844c-0.17-4.874-0.232-8.181-0.232-8.181
				c0-0.249,0.198-0.444,0.455-0.444C925.922,2335.456,926.139,2335.586,926.164,2335.758L926.164,2335.758z"/>
			<path fill="#D59A64" d="M968.414,2240.282c0,0,1.369-2.183,4.234-5.534c2.889-3.318,7.293-7.975,13.51-12.472
				c3.035-2.345,6.645-4.53,10.59-6.605c4.002-1.847,8.375-3.577,13.196-4.657c2.34-0.583,4.825-1.092,7.308-1.286
				c2.564-0.389,5.101-0.453,7.682-0.421c5.08-0.032,9.986,0.183,15.066,0.237c10.014,0.206,20.065,0.152,29.425,0.542
				c9.391,0.475,18.13,1.48,25.572,2.215c14.93,1.556,24.906,3.729,24.906,3.729c0.221,0.108,0.381,0.313,0.327,0.497
				c-0.011,0.206-0.181,0.335-0.349,0.378c0,0-10.073,1.622-25.229,2.249c-7.603,0.389-16.335,0.248-25.719-0.185
				c-9.404-0.595-19.36-1.751-29.365-2.561c-4.956-0.455-10.072-0.908-14.846-1.189c-2.37-0.151-4.69-0.313-6.955-0.054
				c-2.339,0-4.601,0.336-6.852,0.704c-4.458,0.659-8.617,2.086-12.516,3.512c-3.864,1.632-7.474,3.394-10.581,5.35
				c-6.304,3.879-11.043,7.976-14.078,11.013c-3.152,3.08-4.625,5.025-4.625,5.025c-0.13,0.195-0.446,0.206-0.619,0.098
				C968.29,2240.747,968.284,2240.455,968.414,2240.282L968.414,2240.282z"/>
			<g opacity="0.46">
				<g>
					<g>
						<defs>
							<rect id="SVGID_23_" x="973.775" y="2214.03" width="107.565" height="20.546"/>
						</defs>
						<clipPath id="SVGID_24_">
							<use xlink:href="#SVGID_23_"  overflow="visible"/>
						</clipPath>
						<g clip-path="url(#SVGID_24_)">
							<g>
								<defs>
									<rect id="SVGID_25_" x="973.775" y="2214.03" width="107.544" height="20.546"/>
								</defs>
								<clipPath id="SVGID_26_">
									<use xlink:href="#SVGID_25_"  overflow="visible"/>
								</clipPath>
								<path clip-path="url(#SVGID_26_)" fill="#D59A64" d="M973.88,2233.862c0,0,4.396-5.642,13.456-11.446
									c2.275-1.426,4.857-2.875,7.714-4.139c2.872-1.146,6.026-2.324,9.44-2.885c3.34-0.8,6.983-1.016,10.643-1.016h10.354
									c3.44,0,6.947,0,10.379-0.087c3.437-0.216,6.795-0.259,9.957-0.259c6.515,0.14,12.507,0.714,17.749,1.188
									c10.413,1.07,17.419,2.821,17.419,2.821c0.232,0.087,0.387,0.303,0.344,0.54c-0.051,0.173-0.17,0.26-0.344,0.336
									c0,0-6.925,1.945-17.39,3.08c-5.212,0.627-11.382,0.972-17.981,0.918c-3.293-0.043-6.703-0.172-10.158-0.442
									c-3.406-0.368-6.864-0.714-10.365-1.059c-3.486-0.313-6.979-0.659-10.441-0.972c-3.129-0.325-6.326-0.444-9.403,0
									c-3.076,0.248-5.996,1.016-8.766,1.837c-2.761,0.756-5.315,1.794-7.624,2.907c-4.605,2.183-8.169,4.594-10.622,6.29
									c-2.483,1.794-3.737,2.972-3.737,2.972c-0.17,0.13-0.436,0.13-0.602-0.021
									C973.772,2234.273,973.772,2233.992,973.88,2233.862"/>
							</g>
						</g>
					</g>
				</g>
			</g>
			<path fill="#D59A64" d="M866.717,2240.768c0,0-1.486-1.945-4.574-5.08c-3.097-2.982-7.79-7.079-14.107-10.958
				c-3.146-1.956-6.707-3.718-10.573-5.35c-3.905-1.426-8.093-2.854-12.561-3.512c-2.216-0.368-4.496-0.704-6.798-0.704
				c-2.313-0.259-4.607-0.097-6.977,0.054c-4.817,0.281-9.899,0.735-14.879,1.189c-9.976,0.81-19.93,1.966-29.298,2.561
				c-9.406,0.432-18.195,0.573-25.768,0.185c-15.145-0.627-25.215-2.249-25.215-2.249c-0.243-0.043-0.397-0.217-0.351-0.497
				c0-0.162,0.17-0.336,0.325-0.378c0,0,9.992-2.173,24.914-3.729c7.434-0.735,16.176-1.74,25.574-2.215
				c9.392-0.389,19.395-0.336,29.451-0.542c5.045-0.053,9.967-0.269,15.037-0.237c2.585-0.032,5.123,0.032,7.638,0.421
				c2.521,0.195,4.963,0.703,7.373,1.286c4.756,1.08,9.149,2.81,13.169,4.712c3.969,2.021,7.529,4.205,10.605,6.55
				c6.152,4.496,10.627,9.154,13.475,12.472c2.878,3.351,4.269,5.534,4.269,5.534c0.108,0.172,0.046,0.465-0.117,0.584
				C867.139,2240.974,866.899,2240.963,866.717,2240.768L866.717,2240.768z"/>
			<g opacity="0.46">
				<g>
					<g>
						<defs>
							<rect id="SVGID_27_" x="755.714" y="2214.03" width="108.035" height="22.34"/>
						</defs>
						<clipPath id="SVGID_28_">
							<use xlink:href="#SVGID_27_"  overflow="visible"/>
						</clipPath>
						<g clip-path="url(#SVGID_28_)">
							<g>
								<defs>
									<rect id="SVGID_29_" x="755.714" y="2214.03" width="108.035" height="22.34"/>
								</defs>
								<clipPath id="SVGID_30_">
									<use xlink:href="#SVGID_29_"  overflow="visible"/>
								</clipPath>
								<path clip-path="url(#SVGID_30_)" fill="#D59A64" d="M862.984,2236.24c0,0-1.216-1.211-3.594-3.124
									c-2.459-1.902-5.928-4.485-10.514-6.917c-2.283-1.231-4.829-2.366-7.546-3.361c-2.789-0.897-5.712-1.826-8.8-2.215
									c-3.067-0.529-6.292-0.529-9.47-0.217c-3.397,0.281-6.985,0.606-10.446,0.93c-3.531,0.356-7.057,0.724-10.5,1.08
									c-3.486,0.291-6.903,0.421-10.273,0.497c-6.671,0.119-12.907-0.291-18.198-0.918c-10.556-1.027-17.57-3.08-17.57-3.08
									c-0.285-0.108-0.402-0.292-0.359-0.542c0.074-0.193,0.174-0.291,0.359-0.291c0,0,7.063-1.794,17.57-2.864
									c5.332-0.508,11.4-1.069,17.952-1.188c6.511,0.043,13.572,0.453,20.614,0.346h10.526c3.745,0,7.398,0.389,10.798,1.254
									c6.847,1.664,12.534,4.831,16.979,7.911c4.418,3.124,7.736,6.194,9.873,8.441c2.143,2.27,3.235,3.664,3.235,3.664
									c0.151,0.26,0.13,0.432-0.021,0.627C863.422,2236.413,863.133,2236.391,862.984,2236.24"/>
							</g>
						</g>
					</g>
				</g>
			</g>
			<path fill="#F3AE97" d="M88.001,1267.068c0,0-115.965,14.029-81.653,102.113c34.331,88.127,35.725,110.943,58.61,112.39
				c22.843,1.449,53.039-6.159,53.039-6.159L88.001,1267.068z"/>
			<path fill="#EFD5B8" d="M92.476,1347.186c0,0-59.33,13.553-20.027,75.017L92.476,1347.186z"/>
			<path fill="none" stroke="#D3A980" stroke-width="70.5346" stroke-linecap="round" stroke-miterlimit="10" d="M92.476,1347.186
				c0,0-59.33,13.553-20.027,75.017"/>
			<path fill="#F3AE97" d="M1711.197,1244.717c0,0,115.979,14.018,81.661,102.09c-34.325,88.128-35.728,110.965-58.611,112.402
				c-22.82,1.437-53.034-6.16-53.034-6.16L1711.197,1244.717z"/>
			<path fill="none" stroke="#D3A980" stroke-width="70.5346" stroke-linecap="round" stroke-miterlimit="10" d="M1706.731,1324.835
				c0,0,59.318,13.532,20.024,75.028"/>
			<path fill="#9462A2" d="M463.331,2253.943c-1.352-2.01-1.622-3.782-0.727-5.599
				C462.604,2248.344,462.876,2250.312,463.331,2253.943z"/>
			<g>
				<path fill="#814423" d="M1104.75,1034.906c8.007-3.813,16.078-7.188,24.207-10.591c8.129-3.231,16.325-6.269,24.571-9.193
					c4.123-1.524,8.265-2.866,12.418-4.198c4.155-1.358,8.321-2.639,12.503-3.945c8.361-2.623,16.779-4.782,25.25-7.081
					c16.934-4.363,34.093-8.225,51.362-11.072c8.639-1.483,17.274-2.482,25.96-3.543c8.684-1.036,17.343-1.638,26.07-2.386
					c4.369-0.391,8.739-0.805,13.168-1.452c4.425-0.629,8.897-1.448,13.405-2.365l13.543-2.704
					c4.522-0.864,9.066-1.748,13.572-2.362c8.985-1.185,17.777-1.257,26.212,0.388c8.388,1.694,16.367,5.129,24.006,9.795
					c7.565,4.785,14.867,10.434,21.859,16.99c3.465,3.31,6.833,6.925,10.129,10.729c3.282,3.852,6.508,7.85,9.594,12.242
					c1.549,2.147,3.037,4.493,4.538,6.769c1.471,2.385,2.946,4.733,4.367,7.25c2.857,4.976,5.61,10.236,8.213,15.891
					c2.584,5.686,5.021,11.785,7.294,18.325c2.274,6.539,4.403,13.46,6.123,21.608l-5.566,18.502
					c-5.907,5.901-11.404,10.574-16.757,14.865c-5.353,4.293-10.543,8.144-15.586,11.582c-5.045,3.48-9.95,6.601-14.745,9.419
					c-2.406,1.44-4.758,2.711-7.114,4.019c-2.326,1.199-4.665,2.468-6.943,3.538c-9.162,4.582-17.92,8.096-26.369,10.667
					c-8.433,2.688-16.553,4.461-24.42,5.406c-7.852,1.074-15.347,0.84-22.464-0.994c-3.557-0.856-7.026-2.114-10.423-3.747
					c-3.394-1.629-6.729-3.654-10.026-5.797c-6.586-4.296-13.078-9.492-19.729-14.085c-3.324-2.287-6.684-4.475-10.091-6.473
					c-3.407-1.994-6.854-3.875-10.355-5.405l-10.524-4.718c-3.517-1.587-7.035-3.243-10.584-4.74
					c-3.543-1.543-7.087-3.169-10.648-4.754c-1.78-0.794-3.556-1.649-5.339-2.471c-1.783-0.821-3.577-1.587-5.37-2.385l-43.604-20.2
					l-45.089-20.49c-3.823-1.724-7.663-3.374-11.514-5.162c-3.853-1.766-7.715-3.597-11.603-5.312
					c-7.773-3.552-15.603-7.076-23.498-11.039v-19.321H1104.75z"/>
			</g>
			<g>
				<path fill="#814423" d="M746.731,1054.227c-7.894,3.963-15.725,7.486-23.498,11.039c-3.888,1.715-7.751,3.546-11.603,5.312
					c-3.851,1.788-7.691,3.438-11.515,5.162l-45.089,20.49l-43.605,20.2c-1.793,0.797-3.587,1.564-5.37,2.385
					c-1.783,0.822-3.559,1.677-5.339,2.471c-3.561,1.585-7.105,3.211-10.648,4.754c-3.549,1.498-7.067,3.154-10.584,4.74
					l-10.524,4.718c-3.501,1.53-6.947,3.411-10.355,5.405c-3.408,1.998-6.767,4.186-10.091,6.473
					c-6.651,4.593-13.143,9.789-19.729,14.085c-3.296,2.142-6.632,4.168-10.026,5.797c-3.397,1.633-6.866,2.891-10.423,3.747
					c-7.117,1.834-14.612,2.068-22.464,0.994c-7.867-0.945-15.987-2.718-24.42-5.406c-8.449-2.57-17.208-6.084-26.37-10.666
					c-2.278-1.07-4.617-2.339-6.943-3.538c-2.356-1.307-4.708-2.579-7.114-4.019c-4.795-2.817-9.7-5.938-14.745-9.418
					c-5.043-3.438-10.233-7.289-15.586-11.582c-5.353-4.291-10.85-8.965-16.757-14.865l-5.566-18.502
					c1.72-8.148,3.849-15.069,6.123-21.608c2.273-6.541,4.71-12.639,7.294-18.325c2.603-5.655,5.356-10.915,8.213-15.891
					c1.421-2.517,2.896-4.865,4.367-7.25c1.501-2.276,2.989-4.622,4.538-6.769c3.085-4.392,6.312-8.39,9.594-12.242
					c3.296-3.804,6.664-7.419,10.129-10.729c6.992-6.556,14.294-12.206,21.859-16.99c7.639-4.666,15.618-8.101,24.006-9.795
					c8.434-1.644,17.227-1.572,26.212-0.388c4.506,0.614,9.05,1.498,13.572,2.362l13.544,2.704
					c4.508,0.917,8.981,1.736,13.406,2.365c4.429,0.647,8.799,1.06,13.168,1.452c8.727,0.748,17.385,1.349,26.07,2.386
					c8.686,1.06,17.322,2.06,25.96,3.543c17.269,2.847,34.428,6.709,51.362,11.072c8.47,2.3,16.888,4.458,25.25,7.081
					c4.182,1.306,8.348,2.587,12.503,3.945c4.153,1.331,8.295,2.674,12.418,4.198c8.246,2.923,16.442,5.961,24.571,9.193
					c8.129,3.403,16.2,6.778,24.207,10.591v19.319H746.731z"/>
			</g>
			<path fill="#814423" d="M1754.982,1257.564c0,0-28.318,16.092-35.863-11.5c-6.22-22.749-0.71-86.494-12.388-114.603
				c-67.178-161.858-182.507-464.208-283.938-469.299c-140.498-7.138-372.687,329.365-912.273,11.732
				c0,0-303.519,128.106-420.388,447.451c-8.024,21.885,3.984,122.004-2.132,145.722c-6.115,23.718-16.058,12.024-29.005,6.985
				c0,0-17.782-76.674-29.457-173.129c-30.657-253.828-54.95-716.436,173.644-728.444c315.363-16.6,235.845-424.926,687.61-366.823
				c451.763,58.104,348.175,264.452,589.553,156.546c0,0-1.219,7.306-3.432,18.596l-0.057,0.053
				c-7.082,35.411-24.568,109.457-47.644,116.038C1439.061,295.01,1907.209,237.605,1754.982,1257.564z"/>
			<path fill="#683219" d="M1480.345,162.202c0,0-1.219,7.306-3.432,18.596l-0.057,0.053
				c-201.92,177.244-458.404-88.76-650.254-99.826c-191.796-11.068-258.2,291.455-547.829,335.724
				c-289.575,44.269-241.599,704.597-241.599,704.597l-7.635-20.422C-1.118,847.096-25.411,384.488,203.183,372.48
				C518.545,355.879,439.027-52.447,890.792,5.656C1342.555,63.759,1238.968,270.108,1480.345,162.202z"/>
			<path fill="#683219" d="M1740.203,1121.346l-23.178,10.115c-67.178-161.858-192.801-464.208-294.232-469.299
				c-140.498-7.138-372.687,329.365-912.273,11.732c0,0-303.519,128.106-420.388,447.451H75.745c0,0,179.067-489.84,418.839-492.05
				c0,0,265.615,156.378,486.959,119.469c221.345-36.909,339.377-150.461,450.05-119.469
				C1542.266,660.228,1761.34,1015.212,1740.203,1121.346z"/>
			<path fill="#FFFFFF" d="M1284.963,3193.48H583.245L443.742,2180.183c0,0,289.906-42.33,307.392-42.33
				c1.384,0,6.419-0.129,14.665-0.389c9.02-0.26,21.803-0.649,37.573-1.104l113.052,107.251l113.494-111.536
				c11.731-0.13,23.518-0.194,35.36-0.194c167.502-0.649,284.764,47.649,292.567,71.281
				C1372.841,2248.737,1284.963,3193.48,1284.963,3193.48z"/>
			<rect x="999.493" y="3036.746" fill="#29576E" width="26.642" height="144.997"/>
			<path fill="#020202" d="M1323.26,3180.219l-19.962,1719.028l-327.707,0.132V3648.865c0-21.744-16.639-39.128-37.663-39.128
				c-19.694,0-36.386,17.384-36.386,39.128v1250.514l-364.557-29.396L485.84,3180.218h837.42V3180.219z"/>
			<path fill="#2E1C13" d="M904.078,4888.502l-369.895-161.746c0,0-67.505,189.43-178.972,182.566
				c-111.244-6.958-41.284,81.363-21.915,89.127c19.19,7.814,570.782-16.456,570.782-16.456V4888.502z"/>
			<path fill="#2E1C13" d="M975.589,4888.502l333.523-154.924c0,0,78.23,182.608,183.163,175.745
				c104.72-6.958,38.863,81.363,20.629,89.127c-18.064,7.814-537.315-16.456-537.315-16.456L975.589,4888.502L975.589,4888.502z"/>
			<path fill="#F5EEDC" d="M751.134,2135.653l96.559,1302.343c0,0-237.173,44.009-384.363-55.705L443.738,2171.78L751.134,2135.653z
				"/>
			<path fill="#F5EEDC" d="M1060.256,2122.427l-97.375,1311.912c0,0,282.522,28.105,429.712-71.5l-24.941-1204.324
				L1060.256,2122.427z"/>
			<path fill="#4F2A14" d="M677.961,1349.936c0,46.036-37.289,83.325-83.308,83.325c-46.002,0-83.308-37.29-83.308-83.325
				c0-46.003,37.305-83.292,83.308-83.292C640.672,1266.644,677.961,1303.933,677.961,1349.936z"/>
			<path fill="#4F2A14" d="M1253.596,1355.596c0,46.034-37.289,83.324-83.308,83.324c-46.002,0-83.309-37.29-83.309-83.324
				c0-46.004,37.307-83.293,83.309-83.293C1216.308,1272.303,1253.596,1309.592,1253.596,1355.596z"/>
			<path fill="#411214" d="M751.545,1724.969c0,0,3.994,3.016,10.966,8.277c1.754,1.302,3.695,2.75,5.793,4.339
				c2.093,1.612,4.554,2.822,7.038,4.43c2.503,1.471,5.153,3.061,7.949,4.718c1.414,0.82,2.743,1.771,4.298,2.489
				c1.578,0.753,3.171,1.494,4.803,2.223c3.236,1.528,6.617,3.118,10.102,4.735c1.717,0.883,3.541,1.533,5.451,2.122
				c1.87,0.616,3.79,1.25,5.722,1.872c1.903,0.657,3.838,1.291,5.79,1.97c1.941,0.713,3.926,1.363,6.036,1.736
				c4.09,0.905,8.302,1.833,12.557,2.789c2.09,0.572,4.303,0.809,6.491,1.008c2.204,0.197,4.422,0.475,6.634,0.689
				c2.189,0.255,4.426,0.526,6.647,0.776c2.237,0.169,4.525,0.096,6.8,0.169c4.52-0.028,9.06,0.368,13.603,0.034
				c4.54-0.39,9.097-0.741,13.679-1.148c4.515-0.52,9.015-1.573,13.484-2.501c2.179-0.52,4.435-0.86,6.579-1.499l6.449-2.115
				c4.263-1.494,8.523-2.529,12.596-4.232c4.076-1.67,8.119-3.072,12.186-4.339c4.003-1.267,7.833-2.936,11.767-4.096
				c3.935-1.211,7.827-2.269,11.524-3.734c3.666-1.329,7.408-2.455,10.986-3.666c3.615-1.104,6.905-2.653,10.302-3.734
				c3.386-1.154,6.641-2.285,9.703-3.355c3.06-1.183,5.968-2.371,8.777-3.366c5.623-2.009,10.758-3.616,14.808-5.313
				c4.138-1.578,7.59-2.721,9.968-3.462c2.413-0.706,3.75-1.046,3.75-1.046l2.62,2.976c0,0-0.583,1.21-1.794,3.451
				c-1.218,2.195-3.086,5.363-5.662,9.295c-1.318,1.884-2.69,4.169-4.413,6.398c-1.783,2.15-3.717,4.458-5.937,6.874
				c-2.105,2.484-4.518,4.962-6.996,7.615c-2.659,2.489-5.567,5.018-8.659,7.552c-3.077,2.563-6.299,5.301-9.855,7.756
				c-3.643,2.314-7.345,4.832-11.348,7.162c-2.009,1.149-3.94,2.49-6.068,3.554c-2.161,1-4.322,2.07-6.545,3.06
				c-4.453,1.935-8.996,4.005-13.833,5.482c-9.789,2.823-20.032,5.114-30.733,5.799c-2.619,0.295-5.286,0.555-7.956,0.831
				c-2.65,0.214-5.385,0.136-8.055,0.214c-5.383-0.05-10.71,0.56-16.113,0.295c-5.338-0.295-10.703-0.526-16.055-0.837
				c-5.303-0.368-10.565-1.483-15.741-2.19c-2.625-0.436-5.209-0.729-7.754-1.289c-2.529-0.679-5.012-1.37-7.491-2.037
				c-2.483-0.713-4.935-1.392-7.374-2.081c-2.43-0.679-4.865-1.331-7.142-2.336c-4.611-1.896-9.115-3.7-13.555-5.5
				c-2.232-0.831-4.325-1.895-6.372-3.055c-1.997-1.115-4.008-2.212-5.995-3.303c-1.954-1.098-3.911-2.166-5.804-3.23
				c-1.941-1.008-3.79-2.089-5.475-3.384c-3.42-2.455-6.709-4.803-9.862-7.077c-1.595-1.126-3.122-2.269-4.607-3.332
				c-1.474-1.125-2.798-2.467-4.127-3.633c-2.608-2.41-5.109-4.706-7.419-6.845c-2.265-2.161-4.6-4.027-6.31-6.036
				c-1.692-2.003-3.25-3.858-4.656-5.511c-5.658-6.647-8.879-10.489-8.879-10.489L751.545,1724.969z"/>
			<path fill="#071919" d="M920.466,2361.577c0,8.157-6.613,14.771-14.77,14.771s-14.771-6.614-14.771-14.771
				c0-8.158,6.614-14.77,14.771-14.77S920.466,2353.419,920.466,2361.577z"/>
			<path fill="#071919" d="M911.753,2495.839c0,8.157-6.613,14.77-14.77,14.77c-8.158,0-14.77-6.613-14.77-14.77
				c0-8.158,6.613-14.771,14.77-14.771S911.753,2487.681,911.753,2495.839z"/>
			<path fill="#071919" d="M911.753,2618.095c0,8.158-6.613,14.771-14.77,14.771c-8.158,0-14.77-6.614-14.77-14.771
				s6.613-14.77,14.77-14.77S911.753,2609.937,911.753,2618.095z"/>
			<path fill="#071919" d="M909.593,2761.542c0.776,8.121-5.179,15.333-13.3,16.108c-8.12,0.776-15.331-5.178-16.107-13.298
				c-0.776-8.121,5.178-15.333,13.298-16.108S908.817,2753.421,909.593,2761.542z"/>
			<path fill="#071919" d="M909.593,2914.239c0.776,8.12-5.179,15.333-13.3,16.107c-8.12,0.776-15.331-5.177-16.107-13.298
				s5.178-15.333,13.298-16.108C901.605,2900.164,908.817,2906.118,909.593,2914.239z"/>
			<path fill="#071919" d="M917.763,3064.817c0.776,8.12-5.179,15.333-13.298,16.108c-8.121,0.775-15.333-5.178-16.108-13.3
				c-0.776-8.121,5.178-15.333,13.298-16.108S916.987,3056.696,917.763,3064.817z"/>
			<path fill="#EED6B3" d="M662.589,2146.06l-50.852,153.271l29.788,77.018l-82.586,11.35c0,0,98.48,413.285,250.026,527.945
				l-57.831-779.99L662.589,2146.06z"/>
			<path fill="#EED6B3" d="M1152.38,2131.021l50.852,153.271l-29.788,77.017l82.586,11.35c0,0-101.987,413.285-253.532,527.945
				l61.337-779.99L1152.38,2131.021z"/>
			<polygon fill="#FFFFFF" points="920.02,2229.991 916.59,2233.92 726.281,2426.432 726.281,2131.874 791.198,2125.904 
				803.372,2135.698 916.424,2227.114 			"/>
			<polygon fill="#FFFFFF" points="1078.78,2410.996 916.59,2233.92 912.993,2229.991 916.424,2227.114 1030.901,2117.471 
				1120.24,2125.904 			"/>
			<path fill="#071919" d="M920.485,2239.027c0,0,124.121-83.237,159.32-59.219c35.199,24.019,12.968,181.488-27.788,188.897
				c-40.757,7.411-131.532-81.512-131.532-81.512V2239.027z"/>
			<path fill="#071919" d="M905.501,2239.027c0,0-124.122-83.237-159.321-59.219c-35.198,24.019-12.967,181.488,27.789,188.897
				c40.757,7.411,131.533-81.512,131.533-81.512v-48.166H905.501z"/>
			<path fill="#071919" d="M910.972,2299.331L910.972,2299.331c-17.55,0-31.909-14.359-31.909-31.909l0,0
				c0-17.55,14.359-31.909,31.909-31.909l0,0c17.55,0,31.909,14.359,31.909,31.909l0,0
				C942.881,2284.972,928.522,2299.331,910.972,2299.331z"/>
			<path fill="#F1DFC6" d="M454.854,2171.781c0,0-75.614-17.327-110.813,197.364c-35.199,214.69-65.766,1052.392-65.766,1052.392
				l183.809,26.133l0.641-829.575L454.854,2171.781z"/>
			<path fill="#F3AE97" d="M1511.37,3333.409l60.809,208.134c0,0-73.225,114.889-212.424,57.218l15.07-227.056L1511.37,3333.409z"/>
			<path fill="#F1DFC6" d="M1359.755,2160.461c0,0,85.012-17.303,120.855,201.315c35.843,218.619,66.969,1071.646,66.969,1071.646
				l-187.172,26.611l-0.652-844.752V2160.461z"/>
		</g>
	</g>
</g>
</svg>
